<?xml version="1.0" encoding="utf-8"?>
<!-- Generator: Adobe Illustrator 19.1.0, SVG Export Plug-In . SVG Version: 6.00 Build 0)  -->
<svg version="1.1" id="Layer_1" xmlns="http://www.w3.org/2000/svg" xmlns:xlink="http://www.w3.org/1999/xlink" x="0px" y="0px"
	 width="3636.8px" height="562.5px" viewBox="-24.1 259.3 3636.8 562.5" style="enable-background:new -24.1 259.3 3636.8 562.5;"
	 xml:space="preserve">
<g>
	<path d="M1729.2,423.4l-159.9,93.5v228.7l104.6,73.2l160.6-97.8V499.1L1729.2,423.4z M1743.8,763l-83-50.6V481.9l83,50.6V763z"/>
	<path d="M1834,732.5v-43.8h-90.2v60.6c0,35.1,21.6,64.7,48.7,69.5l87-59.9C1860.4,771.7,1834,770.9,1834,732.5z"/>
</g>
<g>
	<path d="M1879.5,376.8l71.1-49c32.9,16.1,57.4,49.7,40.5,86.4l-79.5,55.1C1934.6,449.5,1926.2,402.8,1879.5,376.8z"/>
	<path d="M1969.8,732.2v-43.8h-90.2V749c0,35.1,21.6,64.7,48.7,69.5l87-59.9C1996.1,771.4,1969.8,770.6,1969.8,732.2z"/>
	<polygon points="1969.8,717.5 1969.8,711.8 1969.8,482.5 1969.8,469.3 1879.5,524.3 1879.5,717.5 	"/>
</g>
<g>
	<polygon points="796.4,651 796.4,552.9 796.4,323.6 796.4,310.4 706.2,365.4 706.2,586.1 	"/>
	<polygon points="796.4,721.2 796.4,546.7 706.2,481.9 706.2,579.9 706.2,721.2 	"/>
	<polygon points="796.4,766.8 796.4,721.2 706.2,721.2 706.2,821.8 	"/>
	<polygon points="706.2,365.4 663.6,391.8 725.6,394.4 	"/>
	<path d="M663.6,391.8c0,0,42.6,2.4,42.6,32.1c0,29.7,19.4-19.7,19.4-19.7l-5-40.3L663.6,391.8z"/>
	<path d="M796.4,310.4c0,0-2.1,69.1,41.8,91.9c-56.7,0-57.5,0-57.5,0L796.4,310.4z"/>
</g>
<g>
	<polygon points="1523,648 1523,549.9 1523,320.6 1523,307.4 1432.7,362.4 1432.7,583.2 	"/>
	<polygon points="1523,718.2 1523,543.7 1432.7,478.9 1432.7,577 1432.7,718.2 	"/>
	<polygon points="1523,763.8 1523,718.2 1432.7,718.2 1432.7,818.8 	"/>
	<polygon points="1432.7,362.4 1390.1,388.8 1452.1,391.5 	"/>
	<path d="M1390.1,388.8c0,0,42.6,2.4,42.6,32.1s19.4-19.7,19.4-19.7l-5-40.3L1390.1,388.8z"/>
	<path d="M1523,307.4c0,0-2.1,69.1,41.8,91.9c-56.7,0-57.5,0-57.5,0L1523,307.4z"/>
</g>
<g>
	<polygon points="3570.8,648 3570.8,549.9 3570.8,320.6 3570.8,307.4 3480.6,362.4 3480.6,583.2 	"/>
	<polygon points="3570.8,718.2 3570.8,543.7 3480.6,478.9 3480.6,577 3480.6,718.2 	"/>
	<polygon points="3570.8,763.8 3570.8,718.2 3480.6,718.2 3480.6,818.8 	"/>
	<polygon points="3480.6,362.4 3438,388.8 3500,391.5 	"/>
	<path d="M3438,388.8c0,0,42.6,2.4,42.6,32.1s19.4-19.7,19.4-19.7l-5-40.3L3438,388.8z"/>
	<path d="M3570.8,307.4c0,0-2.1,69.1,41.8,91.9c-56.7,0-57.5,0-57.5,0L3570.8,307.4z"/>
</g>
<g>
	<path d="M945.5,708.4c0,23,30.7,58.5,80.2,58.5c-30.5,19.5-77.3,6.1-77.3,6.1l-24.5-33.4L945.5,708.4z"/>
	<path d="M986.9,758.8c25.1,10.5,72-7.1,106.4-34.2c0,3.5,0,3.1,0,3.1l-76.6,52.6L986.9,758.8z"/>
	<polygon points="1014.4,423.1 853.5,517.2 853.5,747.4 945.5,808.5 945.5,714 945.5,482 1037.8,537.9 1120.3,499.2 	"/>
	<path d="M1025.7,766.9L1025.7,766.9l-24.9,4.3l-48.7-14.9l2.1-18.6l-45.8-16.3v28.2c0,15.5,4.2,29.8,11,41.6l41.8,27.8l116.7-81.4
		C1071,742.2,1033,766.9,1025.7,766.9z"/>
	<path d="M1093.3,727.8V715c0,0-49.9,47.1-88.5,47.1s9.9,14.3,9.9,14.3L1093.3,727.8z"/>
	<polyline points="1084.7,509.2 923.8,603.2 941.5,603.2 1120.3,499.2 	"/>
</g>
<g>
	<path d="M2949.8,708.2c0,23,30.7,58.5,80.2,58.5c-30.5,19.5-77.3,6.1-77.3,6.1l-24.5-33.4L2949.8,708.2z"/>
	<path d="M2991.2,758.6c25.1,10.5,72-7.1,106.4-34.2c0,3.5,0,3.1,0,3.1l-76.6,52.6L2991.2,758.6z"/>
	<polygon points="3018.7,422.9 2857.8,517 2857.8,747.2 2949.8,808.3 2949.8,713.8 2949.8,481.8 3042.1,537.7 3124.6,499 	"/>
	<path d="M3029.9,766.7L3029.9,766.7L3005,771l-48.7-14.9l2.1-18.6l-45.8-16.3v28.2c0,15.5,4.2,29.8,11,41.6l41.8,27.8l116.7-81.4
		C3075.3,742,3037.2,766.7,3029.9,766.7z"/>
	<path d="M3097.6,727.6v-12.8c0,0-49.9,47.1-88.5,47.1s9.9,14.3,9.9,14.3L3097.6,727.6z"/>
	<polyline points="3089,509 2928.1,603 2945.8,603 3124.6,499 	"/>
</g>
<g>
	<g>
		<path d="M2036.8,511.1v43.8h90.2v-60.6c0-35.1-21.6-64.7-48.7-69.5l-87,59.9C2010.4,471.9,2036.8,472.7,2036.8,511.1z"/>
	</g>
	<g>
		<path d="M2127,732.2v-43.8h-90.2V749c0,35.1,21.6,64.7,48.7,69.5l87-59.9C2153.4,771.4,2127,770.6,2127,732.2z"/>
	</g>
	<g>
		<path d="M2301.5,732.2v-43.8h-90.2V749c0,35.1,21.6,64.7,48.7,69.5l87-59.9C2327.8,771.4,2301.5,770.6,2301.5,732.2z"/>
	</g>
	<g>
		<polygon points="2127,717.9 2127,530.4 2036.8,478.6 2036.8,576.7 2036.8,717.9 		"/>
	</g>
	<g>
		<path d="M2211.6,511.1v43.8h90.2v-60.6c0-35.1-21.6-64.7-48.7-69.5l-87,59.9C2185.3,471.9,2211.6,472.7,2211.6,511.1z"/>
	</g>
	<g>
		<polygon points="2301.9,717.9 2301.9,530.4 2211.6,478.6 2211.6,576.7 2211.6,717.9 		"/>
	</g>
	<g>
		<rect x="2183.5" y="394.3" transform="matrix(0.5227 0.8525 -0.8525 0.5227 1445.4829 -1641.1904)" width="10" height="151.9"/>
	</g>
</g>
<g>
	<g>
		<path d="M385.1,511.8v43.8h90.2v-60.6c0-35.1-21.6-64.7-48.7-69.5l-87,59.9C358.7,472.7,385.1,473.5,385.1,511.8z"/>
	</g>
	<g>
		<path d="M475.3,733v-43.8h-90.2v60.6c0,35.1,21.6,64.7,48.7,69.5l87-59.9C501.7,772.1,475.3,771.3,475.3,733z"/>
	</g>
	<g>
		<path d="M649.8,733v-43.8h-90.2v60.6c0,35.1,21.6,64.7,48.7,69.5l87-59.9C676.1,772.1,649.8,771.3,649.8,733z"/>
	</g>
	<g>
		<polygon points="475.3,718.7 475.3,531.1 385.1,479.3 385.1,577.4 385.1,718.7 		"/>
	</g>
	<g>
		<path d="M559.9,511.8v43.8h90.2v-60.6c0-35.1-21.6-64.7-48.7-69.5l-87,59.9C533.6,472.7,559.9,473.5,559.9,511.8z"/>
	</g>
	<g>
		<polygon points="650.2,718.7 650.2,531.1 559.9,479.3 559.9,577.4 559.9,718.7 		"/>
	</g>
	<g>
		<rect x="531.8" y="395.1" transform="matrix(0.5227 0.8525 -0.8525 0.5227 657.7794 -232.732)" width="10" height="151.9"/>
	</g>
</g>
<g>
	<g>
		<path d="M3152.4,511.4v43.8h90.2v-60.6c0-35.1-21.6-64.7-48.7-69.5l-87,59.9C3126.1,472.2,3152.4,473,3152.4,511.4z"/>
	</g>
	<g>
		<path d="M3242.7,732.5v-43.8h-90.2v60.6c0,35.1,21.6,64.7,48.7,69.5l87-59.9C3269,771.7,3242.7,770.9,3242.7,732.5z"/>
	</g>
	<g>
		<path d="M3417.1,732.5v-43.8h-90.2v60.6c0,35.1,21.6,64.7,48.7,69.5l87-59.9C3443.5,771.7,3417.1,770.9,3417.1,732.5z"/>
	</g>
	<g>
		<polygon points="3242.7,718.2 3242.7,530.7 3152.5,478.9 3152.5,577 3152.5,718.2 		"/>
	</g>
	<g>
		<path d="M3327.3,511.4v43.8h90.2v-60.6c0-35.1-21.6-64.7-48.7-69.5l-87,59.9C3300.9,472.2,3327.3,473,3327.3,511.4z"/>
	</g>
	<g>
		<polygon points="3417.5,718.2 3417.5,530.7 3327.3,478.9 3327.3,577 3327.3,718.2 		"/>
	</g>
	<g>
		<rect x="3299.1" y="394.6" transform="matrix(0.5227 0.8525 -0.8525 0.5227 1978.2413 -2592.1646)" width="10" height="151.9"/>
	</g>
</g>
<g>
	<g>
		<path d="M2367.9,511.4v43.8h90.2v-60.6c0-35.1-21.6-64.7-48.7-69.5l-87,59.9C2341.5,472.3,2367.9,473.1,2367.9,511.4z"/>
	</g>
	<g>
		<path d="M2458.1,732.6v-43.8h-90.2v60.6c0,35.1,21.6,64.7,48.7,69.5l87-59.9C2484.5,771.7,2458.1,770.9,2458.1,732.6z"/>
	</g>
	<g>
		<path d="M2632.5,732.6v-43.8h-90.2v60.6c0,35.1,21.6,64.7,48.7,69.5l87-59.9C2658.9,771.7,2632.5,770.9,2632.5,732.6z"/>
	</g>
	<g>
		<polygon points="2458.1,718.3 2458.1,530.7 2367.9,478.9 2367.9,577 2367.9,718.3 		"/>
	</g>
	<g>
		<path d="M2542.7,511.4v43.8h90.2v-60.6c0-35.1-21.6-64.7-48.7-69.5l-87,59.9C2516.3,472.3,2542.7,473.1,2542.7,511.4z"/>
	</g>
	<g>
		<polygon points="2632.9,718.3 2632.9,530.7 2542.7,478.9 2542.7,577 2542.7,718.3 		"/>
	</g>
	<g>
		<rect x="2514.5" y="394.7" transform="matrix(0.5227 0.8525 -0.8525 0.5227 1603.8 -1923.2661)" width="10" height="151.9"/>
	</g>
	<g>
		<path d="M2809,732.6v-43.8h-90.2v60.6c0,35.1,21.6,64.7,48.7,69.5l87-59.9C2835.4,771.7,2809,770.9,2809,732.6z"/>
	</g>
	<g>
		<path d="M2719.2,511.4v43.8h90.2v-60.6c0-35.1-21.6-64.7-48.7-69.5l-87,59.9C2692.9,472.3,2719.2,473.1,2719.2,511.4z"/>
	</g>
	<g>
		<polygon points="2809.5,718.3 2809.5,530.7 2719.2,478.9 2719.2,577 2719.2,718.3 		"/>
	</g>
	<g>
		<rect x="2691" y="394.7" transform="matrix(0.5227 0.8525 -0.8525 0.5227 1688.0532 -2073.7534)" width="10" height="151.9"/>
	</g>
</g>
<g>
	<path d="M1257.5,734.8V691h-90.2v60.6c0,35.1,21.6,64.7,48.7,69.5l87-59.9C1283.8,773.9,1257.5,773.1,1257.5,734.8z"/>
	<path d="M1166.1,506.5v43.8h90.2v-60.6c0-35.1-21.6-64.7-48.7-69.5l-87,59.9C1139.7,467.3,1166.1,468.1,1166.1,506.5z"/>
	<g>
		<polygon points="1189.7,720.5 1257.5,694.8 1257.5,478.7 1340.5,529.3 1431.2,495.9 1325.9,420.2 1166.1,513.7 1166.1,720.5 		"/>
	</g>
</g>
<path d="M292.9,728.7c-211.7,0-222.5-181.5-222.5-217.9c0-32.2,1.5-57.7,2.9-74.7l52.2-25.9l0,223.8l79.4-48.4v-37.1h105.4v-65.2
	H204.9V370.7l23.6-11.7l32.5,27.4l119-43.8l-163.3-83.1l-0.1-0.2L-13.9,373.9l-3.7,24.3c-0.3,1.7-6.5,43.6-6.5,112.6
	c0,107.3,57.2,283.2,263.7,309.1l53.3-36.8v-0.1l78.9-54.3C371.8,728.7,340.1,728.7,292.9,728.7L292.9,728.7z"/>
</svg>
