<?xml version="1.0" encoding="utf-8"?>
<!-- Generator: Adobe Illustrator 19.1.0, SVG Export Plug-In . SVG Version: 6.00 Build 0)  -->
<svg version="1.1" id="Layer_1" xmlns="http://www.w3.org/2000/svg" xmlns:xlink="http://www.w3.org/1999/xlink" x="0px" y="0px"
	 width="2037.1px" height="690.1px" viewBox="3622.4 259.6 2037.1 690.1" style="enable-background:new 3622.4 259.6 2037.1 690.1;"
	 xml:space="preserve">
<path d="M4995.3,847.6v-51.9h0V623.6h0V314.7v-15.6l-106.8,65v306.2l0,0v125.4v34.4v37.3c0,41.6,25.5,76.6,57.6,82.2l103-70.9
	C5026.5,893.9,4995.3,893,4995.3,847.6z"/>
<g>
	<path d="M4683.6,478.9l-189.2,110.6v270.7l123.7,86.6l190-115.7V568.4L4683.6,478.9z M4700.8,880.8l-98.3-59.8V548.2l98.3,59.8
		V880.8z"/>
	<path d="M4807.6,844.8v-51.9h-106.8v71.7c0,41.6,25.5,76.6,57.7,82.2l103-70.9C4838.8,891.1,4807.6,890.1,4807.6,844.8z"/>
</g>
<g>
	<polygon points="5197.7,712.1 5197.7,596.1 5197.7,324.7 5197.7,309.1 5091,374.1 5091,635.4 	"/>
	<polygon points="5197.7,829.4 5197.7,622.9 5091,546.1 5091,662.2 5091,829.4 	"/>
	<polygon points="5197.8,883.4 5197.8,829.4 5091,829.4 5091,948.4 	"/>
	<polygon points="5091,374.1 5040.6,405.4 5113.9,408.5 	"/>
	<path d="M5040.6,405.4c0,0,50.4,2.9,50.4,38s23-23.3,23-23.3l-5.9-47.7L5040.6,405.4z"/>
	<path d="M5197.7,309.1c0,0-2.5,81.8,49.5,108.8c-67,0-68,0-68,0L5197.7,309.1z"/>
</g>
<g>
	<path d="M4275.8,811.4c0,27.3,36.4,69.3,94.9,69.3c-36.1,23.1-91.5,7.3-91.5,7.3l-29-39.6L4275.8,811.4z"/>
	<path d="M4324.8,871.1c29.7,12.4,85.2-8.5,125.9-40.4c0,4.2,0,3.7,0,3.7l-90.7,62.3L4324.8,871.1z"/>
	<polygon points="4357.3,473.8 4166.9,585.2 4166.9,857.6 4275.8,929.9 4275.8,818 4275.8,543.5 4385.1,609.6 4482.7,563.9 	"/>
	<path d="M4370.7,880.7L4370.7,880.7l-29.5,5.1l-57.6-17.6l2.5-22l-54.2-19.3v33.3c0,18.3,5,35.2,13.1,49.2l49.5,32.9l138.1-96.3
		C4424.3,851.5,4379.3,880.7,4370.7,880.7z"/>
	<path d="M4450.7,834.4v-15.1c0,0-59,55.8-104.7,55.8s11.7,17,11.7,17L4450.7,834.4z"/>
	<polyline points="4440.5,575.7 4250.1,687 4271.1,687 4482.7,563.9 	"/>
</g>
<g>
	<path d="M5605.6,845.4v-51.9h-106.8v71.7c0,41.6,25.5,76.6,57.7,82.2l103-70.9C5636.7,891.7,5605.6,890.7,5605.6,845.4z"/>
	<g>
		<path d="M5293.8,401.8v51.9h106.8V382c0-41.6-25.5-76.6-57.7-82.2l-103,70.9C5262.6,355.5,5293.8,356.4,5293.8,401.8z"/>
	</g>
	<g>
		<path d="M5399.1,847v-51.9h-106.8v71.7c0,41.6,25.5,76.6,57.7,82.2l103-70.9C5430.3,893.3,5399.1,892.4,5399.1,847z"/>
	</g>
	<rect x="5292.3" y="376.7" width="108.2" height="213.5"/>
	<polygon points="5400.5,548.8 5498.8,608.6 5498.8,793.5 5498.8,825.2 5606.1,825.2 5606.1,569 5481.5,479.5 5292.3,590.2 
		5292.3,823.9 5404.3,823.9 5400.5,821.6 	"/>
</g>
<g>
	<path d="M3680.1,369v55.6h114.4v-76.8c0-44.5-27.3-82-61.8-88.1l-110.3,75.9C3646.7,319.3,3680.1,320.4,3680.1,369z"/>
</g>
<g>
	<path d="M3794.5,837.5v-55.6h-114.4v76.8c0,44.6,27.3,82,61.8,88.1l110.4-75.9C3827.9,887.1,3794.5,886.1,3794.5,837.5z"/>
</g>
<rect x="3680.1" y="361" width="114.4" height="225.6"/>
<rect x="3680.1" y="578.2" width="114.4" height="225"/>
<g>
	<path d="M3965.7,369v55.6h114.4v-76.8c0-44.6-27.3-82-61.8-88.1l-110.4,75.9C3932.2,319.4,3965.7,320.4,3965.7,369z"/>
</g>
<g>
	<path d="M4080.1,837.5v-55.6h-114.4v76.8c0,44.6,27.3,82,61.8,88.1l110.4-75.9C4113.5,887.1,4080.1,886.1,4080.1,837.5z"/>
</g>
<rect x="3965.7" y="361" width="114.4" height="225.6"/>
<rect x="3965.7" y="578.2" width="114.4" height="225"/>
<polygon points="3784.7,652.8 4038.6,652.8 3978.2,545.8 3820.1,545.8 3762,652.8 "/>
</svg>
