<?xml version="1.0" encoding="utf-8"?>
<!-- Generator: Adobe Illustrator 19.1.0, SVG Export Plug-In . SVG Version: 6.00 Build 0)  -->
<svg version="1.1" id="Layer_1" xmlns="http://www.w3.org/2000/svg" xmlns:xlink="http://www.w3.org/1999/xlink" x="0px" y="0px"
	 width="2554px" height="690.2px" viewBox="1068.3 259.5 2554 690.2" style="enable-background:new 1068.3 259.5 2554 690.2;"
	 xml:space="preserve">
<path d="M2381.5,740.1v-42.4h0V557.1h0V304.6v-12.8l-87.3,53.1v250.2l0,0v102.5v28.1v30.5c0,34,20.9,62.6,47.1,67.2l84.2-57.9
	C2407,778,2381.5,777.2,2381.5,740.1z"/>
<g>
	<path d="M1508.1,394l68.8-47.4c31.8,15.5,55.5,48.1,39.2,83.6l-76.9,53.3C1561.4,464.2,1553.2,419.1,1508.1,394z"/>
	<path d="M1595.4,737.8v-42.4h-87.3V754c0,34,20.9,62.6,47.1,67.2l84.2-57.9C1620.9,775.6,1595.4,774.9,1595.4,737.8z"/>
	<polygon points="1595.4,723.5 1595.4,718 1595.4,496.2 1595.4,483.5 1508.1,536.6 1508.1,723.5 	"/>
</g>
<g>
	<path d="M2454.5,394l68.8-47.4c31.8,15.5,55.5,48.1,39.2,83.6l-76.9,53.3C2507.8,464.2,2499.6,419.1,2454.5,394z"/>
	<path d="M2541.8,737.8v-42.4h-87.3V754c0,34,20.9,62.6,47.1,67.2l84.2-57.9C2567.3,775.6,2541.8,774.9,2541.8,737.8z"/>
	<polygon points="2541.8,723.5 2541.8,718 2541.8,496.2 2541.8,483.5 2454.5,536.6 2454.5,723.5 	"/>
</g>
<path d="M3533.8,617.7l-35.2-33.4l-31-28.9c-24.2-22.5-13.4-40.2,4.5-47.4l64.3,39.1l0.3-0.1l0.2,0.1l0.2-0.2l85.3-31.4l-31.4-22.6
	l0.2-0.2l-68.1-48.9l-0.2,0.1l-0.2-0.1l-143.4,84c-14.5,22.4-7.9,57.1,17,80.3l29.3,27.3l-0.1,0l48.8,46l0,0l8.6,8.1l3.1,2.9l0,0
	l19.3,18c24.2,22.5,13.4,40.2-4.5,47.4l-64.3-39.2l-0.3,0.1l-0.2-0.1l-0.2,0.3l-85.3,31.4l31.4,22.6l-0.2,0.2l68.1,48.9l0.2-0.1
	l0.2,0.1l143.4-84c14.5-22.4,7.9-57.1-17-80.3L3533.8,617.7z"/>
<g>
	<polygon points="3330.1,628.9 3330.1,534 3330.1,312.2 3330.1,299.5 3242.8,352.6 3242.8,566.2 	"/>
	<polygon points="3330.1,724.7 3330.1,555.9 3242.8,493.2 3242.8,588.1 3242.8,724.7 	"/>
	<polygon points="3330.1,768.8 3330.1,724.7 3242.8,724.7 3242.8,822 	"/>
	<polygon points="3242.8,352.6 3201.6,378.2 3261.5,380.7 	"/>
	<path d="M3201.6,378.2c0,0,41.2,2.3,41.2,31.1s18.8-19.1,18.8-19.1l-4.8-39L3201.6,378.2z"/>
	<path d="M3330.1,299.5c0,0-2,66.9,40.4,88.9c-54.8,0-55.6,0-55.6,0L3330.1,299.5z"/>
</g>
<g>
	<path d="M2224.9,737.8v-42.4h-87.3V754c0,34,20.9,62.6,47.1,67.2l84.2-57.9C2250.4,775.6,2224.9,774.9,2224.9,737.8z"/>
	<g>
		<path d="M1970.1,375.2v42.4h87.3V359c0-34-20.9-62.6-47.1-67.2l-84.2,57.9C1944.6,337.4,1970.1,338.2,1970.1,375.2z"/>
	</g>
	<g>
		<path d="M2056.2,739.1v-42.4h-87.3v58.6c0,34,20.9,62.6,47.1,67.2l84.2-57.9C2081.7,777,2056.2,776.2,2056.2,739.1z"/>
	</g>
	<rect x="1968.9" y="354.7" width="88.5" height="174.5"/>
	<polygon points="2057.3,495.4 2137.6,544.3 2137.6,695.4 2137.6,721.3 2225.4,721.3 2225.4,511.9 2123.6,438.8 1968.9,529.2 
		1968.9,720.2 2060.5,720.2 2057.3,718.3 	"/>
</g>
<g>
	<path d="M3178.3,737.8v-42.4H3091V754c0,34,20.9,62.6,47.1,67.2l84.2-57.9C3203.8,775.6,3178.3,774.9,3178.3,737.8z"/>
	<g>
		<path d="M2923.5,375.2v42.4h87.3V359c0-34-20.9-62.6-47.1-67.2l-84.2,57.9C2898,337.4,2923.5,338.2,2923.5,375.2z"/>
	</g>
	<g>
		<path d="M3009.6,739.1v-42.4h-87.3v58.6c0,34,20.9,62.6,47.1,67.2l84.2-57.9C3035.1,777,3009.6,776.2,3009.6,739.1z"/>
	</g>
	<rect x="2922.3" y="354.7" width="88.5" height="174.5"/>
	<polygon points="3010.7,495.4 3091,544.3 3091,695.4 3091,721.3 3178.8,721.3 3178.8,511.9 3076.9,438.8 2922.3,529.2 
		2922.3,720.2 3013.8,720.2 3010.7,718.3 	"/>
</g>
<g>
	<g>
		<path d="M1115.5,348.9v45.4h93.5v-62.8c0-36.4-22.3-67-50.5-72l-90.2,62.1C1088.2,308.3,1115.5,309.2,1115.5,348.9z"/>
	</g>
	<g>
		<path d="M1209,731.8v-45.4h-93.5v62.8c0,36.4,22.4,67,50.5,72l90.2-62.1C1236.4,772.4,1209,771.5,1209,731.8z"/>
	</g>
	<rect x="1115.5" y="342.4" width="93.5" height="184.4"/>
	<rect x="1115.5" y="526.8" width="93.5" height="177.1"/>
	<g>
		<path d="M1348.9,348.9v45.4h93.5v-62.8c0-36.4-22.3-67-50.5-72l-90.2,62.1C1321.6,308.4,1348.9,309.2,1348.9,348.9z"/>
	</g>
	<g>
		<path d="M1442.5,731.8v-45.4H1349v62.8c0,36.4,22.3,67,50.5,72l90.2-62.1C1469.8,772.4,1442.5,771.5,1442.5,731.8z"/>
	</g>
	<rect x="1349" y="342.4" width="93.5" height="184.4"/>
	<rect x="1349" y="526.8" width="93.5" height="177.1"/>
	<polygon points="1201,580.9 1408.6,580.9 1359.2,493.5 1230,493.5 1182.5,580.9 	"/>
</g>
<g>
	<path d="M1813.2,438.8l-154.6,90.4v221.3l101.1,70.8l155.3-94.6V511.9L1813.2,438.8z M1827.3,767.2l-80.3-48.9v-223l80.3,48.9
		V767.2z"/>
	<polygon points="1827.3,785 1827.3,895.7 1747,846.8 1658.6,878.9 1658.6,878.9 1658.6,878.9 1759.7,949.7 1915,855.1 1915,785 	
		"/>
	<rect x="1827.3" y="696.7" width="87.8" height="111"/>
</g>
<g>
	<path d="M2765.5,438.8l-154.6,90.4v221.3l101.1,70.8l155.3-94.6V511.9L2765.5,438.8z M2779.6,767.2l-80.3-48.9v-223l80.3,48.9
		V767.2z"/>
	<polygon points="2779.6,785 2779.6,895.7 2699.3,846.8 2610.9,878.9 2610.9,878.9 2610.9,878.9 2712,949.7 2867.3,855.1 
		2867.3,785 	"/>
	<rect x="2779.6" y="696.7" width="87.8" height="111"/>
</g>
</svg>
