<?xml version="1.0" encoding="utf-8"?>
<!-- Generator: Adobe Illustrator 19.1.0, SVG Export Plug-In . SVG Version: 6.00 Build 0)  -->
<svg version="1.1" id="Layer_1" xmlns="http://www.w3.org/2000/svg" xmlns:xlink="http://www.w3.org/1999/xlink" x="0px" y="0px"
	 width="1919px" height="562.7px" viewBox="0 0 1919 562.7" style="enable-background:new 0 0 1919 562.7;" xml:space="preserve">
<path d="M534.3,154.1l-165,96.5v236l107.9,75.5l165.7-100.9V232.2L534.3,154.1z M549.3,504.6l-85.7-52.2V214.5l85.7,52.2V504.6z"/>
<path d="M871.2,106.8l73.4-50.5c33.9,16.6,59.2,51.3,41.8,89.2l-82.1,56.8C928,181.8,919.3,133.6,871.2,106.8z"/>
<path d="M795.4,473.6v-45.2h0V278.3h0V48.1V34.4l-93.1,56.7V319l0,0v109.4v30v32.5c0,36.3,22.2,66.8,50.3,71.7l89.8-61.8
	C822.5,514,795.4,513.2,795.4,473.6z"/>
<path d="M221.2,0L221.2,0L221.2,0L221.2,0l-0.1,0.1l-75.9,52.8C138,25.3,118.6,4.1,95.1,0L0,65.4c20.9-14,49.7-13.1,49.7,28.8v63.3
	h-0.2v105.2l0,0v33.9v136h0v115.1v14.4l98.8-60.2v-69.4l0,0v-59.4l77.4,45.5l98.3-95.6v-80.8v-9.5v-9.3v-42.6v-41.6V120v-17.1
	C324.1,13.6,221.7,0.1,221.2,0z M225.8,330.1l-77.4-44.9v-25l0,0l0,0h0v-88.4v-14.3V76.4l21.8-15.2l0,0c25.1,0,55.5,33.1,55.5,59.5
	c0,26.4,0,49.7,0,49.7s0.1,0,0.1,0v10.4v11.6v30.9v9.3V330.1z"/>
<path d="M964.3,473.6v-45.2h0V215.9v-13.6L871.2,259v199.4l0,0v32.5c0,36.3,22.3,66.8,50.3,71.7l89.8-61.8
	C991.5,514,964.3,513.2,964.3,473.6z"/>
<g>
	<path d="M1256.7,202.3l82.1-56.8c17.4-37.9-7.9-72.6-41.8-89.2l-73.4,50.5C1271.7,133.6,1280.4,181.8,1256.7,202.3z"/>
	<path d="M1316.7,473.6v-45.2h0V215.9v-13.6l-93.1,56.7v199.4h0v32.5c0,36.3,22.2,66.8,50.3,71.7l89.8-61.8
		C1343.9,514,1316.7,513.2,1316.7,473.6z"/>
</g>
<path d="M1824.4,339.6l-37.5-35.6l-33.1-30.9c-25.8-24-14.3-42.8,4.8-50.5l68.6,41.8l0.3-0.1l0.2,0.1l0.3-0.3l91-33.5l-33.5-24.1
	l0.2-0.2l-72.6-52.2l-0.2,0.1l-0.2-0.1l-153,89.6c-15.5,23.9-8.4,60.9,18.1,85.7l31.2,29.1l-0.1,0.1l52.1,49l0,0l9.2,8.6l3.3,3.1
	l0,0l20.6,19.2c25.8,24,14.3,42.8-4.8,50.6l-68.6-41.8l-0.3,0.1l-0.2-0.1l-0.3,0.3l-91,33.5l33.5,24.1l-0.2,0.2l72.6,52.2l0.2-0.1
	l0.2,0.1l153-89.6c15.5-23.9,8.4-60.9-18.1-85.7L1824.4,339.6z"/>
<path d="M1524.4,500.9c-27.9-12-44.3-35.4-44.3-52.4V214.9l86.2,52.5l94.2-34.7l-109.3-78.6l-166,97.1v237.5l0.1,0l111.1,73.9h0h0
	l57.1-39.8l79.1-54.3c0-0.1,0-0.5,0-3.2v-10c0,0-40.2,38-77.1,46.8C1543.7,504.2,1532.9,504.1,1524.4,500.9z"/>
<path d="M1153.9,129.3c8.8,0,22.2,0,43.1,0c-39.5-20.5-42.9-77.4-43.1-91.6v-3.3l-93.1,56.7l-43.9,27.3c0,0,43.9,2.5,43.9,33.2v59.8
	v101.2v6.4v139.4l0,0v103.8l92.7-56.5l0.4-0.2v-47.1l0,0V278.3l0,0V129.3z"/>
</svg>
