<?xml version="1.0" encoding="utf-8"?>
<!-- Generator: Adobe Illustrator 19.1.0, SVG Export Plug-In . SVG Version: 6.00 Build 0)  -->
<svg version="1.1" id="Layer_1" xmlns="http://www.w3.org/2000/svg" xmlns:xlink="http://www.w3.org/1999/xlink" x="0px" y="0px"
	 width="2125.4px" height="854.3px" viewBox="19.5 195.9 2125.4 854.3" style="enable-background:new 19.5 195.9 2125.4 854.3;"
	 xml:space="preserve">
<style type="text/css">
	.st0{fill:#FFFFFF;stroke:#000000;stroke-miterlimit:10;}
	.st1{fill:#FFFFFF;}
</style>
<path d="M1127.1,392.6L928.2,508.9v284.6l130.1,91l199.8-121.7V486.7L1127.1,392.6z M1145.2,815.1l-103.3-62.9V465.4l103.3,62.9
	V815.1z"/>
<path d="M756.4,395.1L756.4,395.1L756.4,395.1L756.4,395.1l-0.2,0.1l-88.4,61.5c-8.4-32.2-31-56.8-58.4-61.6l-110.9,76.3
	c24.4-16.3,58-15.3,58,33.6v73.8h-0.2v122.5l0,0v39.5v158.4h0v134.2v16.8l115.1-70.1v-80.9l0,0v-69.2l90.2,53l114.6-111.4v-94.1
	v-11.1v-10.8V606v-48.5V535v-19.9C876.3,411,756.9,395.2,756.4,395.1z M761.7,779.8l-90.2-52.4v-29.1l0,0l0,0h0v-103v-16.6v-94.5
	l25.4-17.7l0,0c29.2,0,64.6,38.6,64.6,69.3c0,30.8,0,57.9,0,57.9l0.1,0V606v13.6v36v10.8V779.8z"/>
<path d="M2030.9,621.7l-45.2-42.9l-39.9-37.2c-31.1-29-17.3-51.7,5.8-60.9l82.7,50.4l0.3-0.1l0.2,0.1l0.3-0.3l109.7-40.4l-40.4-29
	l0.2-0.2l-87.6-62.9l-0.3,0.2l-0.2-0.2l-184.5,108.1c-18.7,28.8-10.1,73.5,21.9,103.3l37.7,35.1l-0.1,0.1l62.8,59.1l0,0l11.1,10.4
	l3.9,3.7l0,0l24.8,23.2c31.1,29,17.3,51.7-5.8,61l-82.7-50.4l-0.3,0.1l-0.2-0.1l-0.3,0.3l-109.7,40.4l40.4,29l-0.2,0.2l87.6,62.9
	l0.3-0.2l0.2,0.2l184.5-108.1c18.7-28.8,10.1-73.5-21.9-103.3L2030.9,621.7z"/>
<g>
	<polygon points="1766.8,672 1766.8,550 1766.8,264.7 1766.8,248.3 1654.6,316.6 1654.6,591.4 	"/>
	<polygon points="1766.8,759.4 1766.8,542.3 1654.6,461.6 1654.6,583.7 1654.6,759.4 	"/>
	<polygon points="1766.8,816.2 1766.8,759.4 1654.6,759.4 1654.6,884.5 	"/>
	<polygon points="1654.6,316.6 1601.6,349.5 1678.7,352.8 	"/>
	<path d="M1601.6,349.5c0,0,53,3,53,40s24.1-24.5,24.1-24.5l-6.2-50.1L1601.6,349.5z"/>
	<path d="M1766.8,248.3c0,0-2.6,86,52,114.3c-70.5,0-71.5,0-71.5,0L1766.8,248.3z"/>
</g>
<g>
	<path d="M1436.5,777.2v-54.5h-112.3v75.4c0,43.7,26.8,80.5,60.6,86.4l108.3-74.5C1469.3,825.9,1436.5,824.9,1436.5,777.2z"/>
	<path d="M1322.8,493.1v54.5h112.3v-75.4c0-43.7-26.8-80.5-60.6-86.4l-108.3,74.5C1290,444.4,1322.8,445.4,1322.8,493.1z"/>
	<g>
		<polygon points="1352.1,759.4 1436.5,727.4 1436.5,458.6 1539.8,521.5 1652.7,479.9 1521.7,385.8 1322.8,502.1 1322.8,759.4 		"/>
	</g>
</g>
<path class="st0" d="M531.6,326.2"/>
<path d="M451.5,579.2L451.5,579.2l-48.7-45.9L296.1,427l-116.3,97l100.7,100.4l79.2,74.5c9.8,9.1,14.8,17.7,14.2,24
	c-0.6,5.7-6.2,10-9.3,11.8l-40.7,23.8l-148.9-85.3L19.5,730.7L252.2,883L502,736.8l2-3.1c24.3-37.5,13.3-93.1-25.6-129.4
	L451.5,579.2z"/>
<path d="M516.9,697.9"/>
<path d="M244.1,379.9c-9.8-9.1-14.8-17.6-14.2-24c0.6-5.7,6.2-10,9.3-11.9l40.7-23.8l119.7,68.5l143.9-67.2L351.6,195.9L101.8,342.1
	l-2,3.1c-24.3,37.5-13.3,93.1,25.6,129.4l28.3,26.4l0,0l47.4,44.6l8.6,8.6l116.7-95.5l-30.2-30.1L244.1,379.9z"/>
<path class="st1" d="M516.9,697.9"/>
</svg>
