<?xml version="1.0" encoding="utf-8"?>
<!-- Generator: Adobe Illustrator 19.1.0, SVG Export Plug-In . SVG Version: 6.00 Build 0)  -->
<svg version="1.1" id="Layer_1" xmlns="http://www.w3.org/2000/svg" xmlns:xlink="http://www.w3.org/1999/xlink" x="0px" y="0px"
	 width="1333px" height="562.5px" viewBox="1120.3 284.3 1333 562.5" style="enable-background:new 1120.3 284.3 1333 562.5;"
	 xml:space="preserve">
<path d="M1994.7,782c-26.9-11.6-42.8-34.2-42.8-50.6V505.9l83.2,50.7l90.9-33.5l-105.5-75.8L1860.4,541v229.2h0.1l107.3,71.3l0,0
	l0,0l55.1-38.5l76.3-52.4c0-0.1,0-0.5,0-3.1V738c0,0-38.8,36.6-74.4,45.1C2013.4,785.2,2003,785,1994.7,782z"/>
<g>
	<path d="M1672.2,731.4c0,23,30.6,58.3,79.8,58.3c-30.4,19.4-77,6.1-77,6.1l-24.4-33.3L1672.2,731.4z"/>
	<path d="M1713.5,781.6c25,10.4,71.7-7.1,105.9-34c0,3.5,0,3.1,0,3.1l-76.3,52.4L1713.5,781.6z"/>
	<polygon points="1740.8,447.3 1580.6,541 1580.6,770.2 1672.2,831.1 1672.2,737 1672.2,505.9 1764.2,561.6 1846.3,523.1 	"/>
	<path d="M1752,789.7L1752,789.7l-24.8,4.3l-48.5-14.8l2.1-18.5l-45.6-16.2v28.1c0,15.4,4.2,29.7,11,41.4l41.7,27.7l116.3-81.1
		C1797.2,765.2,1759.3,789.7,1752,789.7z"/>
	<path d="M1819.4,750.7V738c0,0-49.7,46.9-88.1,46.9s9.9,14.3,9.9,14.3L1819.4,750.7z"/>
	<polyline points="1810.8,533 1650.6,626.7 1668.2,626.7 1846.3,523.1 	"/>
</g>
<g>
	<path d="M2408,759.5v-43.7h-89.9v60.4c0,35,21.5,64.4,48.5,69.2l86.7-59.7C2434.3,798.4,2408,797.6,2408,759.5z"/>
	<g>
		<path d="M2145.6,386.1v43.7h89.9v-60.4c0-35-21.5-64.4-48.5-69.2l-86.7,59.7C2119.4,347.2,2145.6,348,2145.6,386.1z"/>
	</g>
	<g>
		<path d="M2234.3,760.8v-43.7h-89.9v60.4c0,35,21.5,64.4,48.5,69.2l86.7-59.7C2260.5,799.8,2234.3,799,2234.3,760.8z"/>
	</g>
	<rect x="2144.4" y="365" width="91.1" height="179.7"/>
	<polygon points="2235.4,509.8 2318.1,560.2 2318.1,715.8 2318.1,742.5 2408.5,742.5 2408.5,526.9 2303.6,451.5 2144.4,544.7 
		2144.4,741.4 2238.7,741.4 2235.4,739.4 	"/>
</g>
<g>
	<path d="M1209.7,377.8h45.4v-93.5h-62.8c-36.4,0-67,22.4-72,50.5l62.1,90.2C1169.1,405.2,1169.9,377.8,1209.7,377.8z"/>
	<polygon points="1248.7,284.3 1256.6,284.3 1580,284.3 1598.6,284.3 1561.2,377.8 1248.7,377.8 	"/>
	<g>
		<polygon points="1464.6,536.7 1464.6,354.2 1370.2,286.4 1370.2,389 1370.2,536.7 		"/>
		<polygon points="1464.6,584.4 1464.6,536.7 1370.2,536.7 1370.2,641.8 		"/>
		<path d="M1370.4,640.8c1,28.4-33.5,67.8-72.6,91.5c3.4,1.3,3.1,1.2,3.1,1.2l79.7-55.6L1370.4,640.8z"/>
		<path d="M1300.9,733.4l-12.5-4.7c0,0,64.5-31.4,78.7-69.2c14.2-37.8,10.4,15,10.4,15L1300.9,733.4z"/>
		<path d="M1374.8,571.9l-4.6,1.2v68.7h-0.1c0.7,12.4-0.8,25.8-6.1,39.9c30.3-22.6,34.4-73.4,34.4-73.4L1374.8,571.9z"/>
		<path d="M1426.9,586.6c-9-11-21.5-20.4-36.6-26.1l-20-7.5v50.1l10.5,2.6l-3.4,53.1l-13.4,22.8l0,0c-2.6,7.2-40.8,35.3-47.9,40.4
			l122.6-84.3L1426.9,586.6z"/>
		<polygon points="1346,701.9 1464.6,619.9 1464.6,579.4 1415.2,599.3 1376.6,669.7 		"/>
	</g>
	<path d="M1173.6,548.4c0-129.3,138.2-206.5,138.2-206.5v40.3c0,0-39.3,41-39.3,166.2S1173.6,548.4,1173.6,548.4z"/>
	<path d="M1505,758.7c-221.4,0-232.6-175.2-232.6-210.3h-98.8c0,103.6,59.8,273.4,275.7,298.4l55.8-35.5v-0.1l82.5-52.4
		C1587.5,758.7,1554.4,758.7,1505,758.7L1505,758.7z"/>
</g>
</svg>
