<?xml version="1.0" encoding="utf-8"?>
<!-- Generator: Adobe Illustrator 19.1.0, SVG Export Plug-In . SVG Version: 6.00 Build 0)  -->
<svg version="1.1" id="Layer_1" xmlns="http://www.w3.org/2000/svg" xmlns:xlink="http://www.w3.org/1999/xlink" x="0px" y="0px"
	 width="16.1px" height="16.1px" viewBox="0 0 16.1 16.1" style="enable-background:new 0 0 16.1 16.1;" xml:space="preserve">
<style type="text/css">
	.facebook-fill{fill:#424242;}
</style>
<path class="facebook-fill" d="M8,0C3.6,0,0,3.6,0,8s3.6,8,8,8c4.4,0,8-3.6,8-8S12.5,0,8,0z M9.8,8H8.6c0,1.9,0,4.1,0,4.1H6.9c0,0,0-2.3,0-4.1
	H6.1V6.6h0.8V5.6c0-0.7,0.3-1.7,1.7-1.7l1.3,0v1.4c0,0-0.8,0-0.9,0c-0.2,0-0.4,0.1-0.4,0.4v0.9H10L9.8,8z"/>
</svg>
