<?xml version="1.0" encoding="utf-8"?>
<!-- Generator: Adobe Illustrator 19.1.0, SVG Export Plug-In . SVG Version: 6.00 Build 0)  -->
<svg version="1.1" id="Layer_1" xmlns="http://www.w3.org/2000/svg" xmlns:xlink="http://www.w3.org/1999/xlink" x="0px" y="0px"
	 width="13.8px" height="11.2px" viewBox="0 0 13.8 11.2" style="enable-background:new 0 0 13.8 11.2;" xml:space="preserve">
<style type="text/css">
	.st0{fill:#222222;}
</style>
<g>
	<g>
		<path class="st0" d="M13.8,1.3c-0.5,0.2-1.1,0.4-1.6,0.4c0.6-0.4,1-0.9,1.2-1.6c-0.5,0.3-1.2,0.6-1.8,0.7C11.1,0.3,10.4,0,9.6,0
			C8,0,6.7,1.3,6.7,2.8c0,0.2,0,0.4,0.1,0.6C4.4,3.4,2.4,2.2,1,0.5C0.7,0.9,0.6,1.4,0.6,1.9c0,1,0.5,1.8,1.3,2.4
			c-0.5,0-0.9-0.1-1.3-0.4v0c0,1.4,1,2.5,2.3,2.8C2.6,6.8,2.3,6.8,2.1,6.8c-0.2,0-0.4,0-0.5-0.1c0.4,1.1,1.4,1.9,2.6,2
			C3.2,9.5,2,10,0.7,10c-0.2,0-0.5,0-0.7,0c1.3,0.8,2.7,1.3,4.3,1.3c5.2,0,8.1-4.3,8.1-8.1l0-0.4C12.9,2.4,13.4,1.9,13.8,1.3z"/>
	</g>
</g>
</svg>
