<?xml version="1.0" encoding="utf-8"?>
<!-- Generator: Adobe Illustrator 19.1.0, SVG Export Plug-In . SVG Version: 6.00 Build 0)  -->
<svg version="1.1" id="Layer_1" xmlns="http://www.w3.org/2000/svg" xmlns:xlink="http://www.w3.org/1999/xlink" x="0px" y="0px"
	 width="16.1px" height="16.1px" viewBox="0 0 16.1 16.1" style="enable-background:new 0 0 16.1 16.1;" xml:space="preserve">
<style type="text/css">
	.twitter-fill{fill:#424242;}
</style>
<path class="twitter-fill" d="M8,0C3.6,0,0,3.6,0,8c0,4.4,3.6,8,8,8c4.4,0,8-3.6,8-8C16.1,3.6,12.5,0,8,0z M11.1,6.4l0,0.2
	c0,2.1-1.6,4.5-4.5,4.5c-0.9,0-1.7-0.3-2.4-0.7c0.1,0,0.3,0,0.4,0c0.7,0,1.4-0.3,2-0.7C5.8,9.8,5.2,9.3,5,8.7c0.1,0,0.2,0,0.3,0
	c0.1,0,0.3,0,0.4-0.1C5,8.5,4.5,7.9,4.5,7.1v0c0.2,0.1,0.5,0.2,0.7,0.2C4.8,7,4.5,6.5,4.5,6c0-0.3,0.1-0.6,0.2-0.8
	c0.8,1,2,1.6,3.3,1.7c0-0.1,0-0.2,0-0.4c0-0.9,0.7-1.6,1.6-1.6c0.5,0,0.9,0.2,1.2,0.5c0.4-0.1,0.7-0.2,1-0.4
	c-0.1,0.4-0.4,0.7-0.7,0.9c0.3,0,0.6-0.1,0.9-0.3C11.7,5.9,11.4,6.2,11.1,6.4z"/>
</svg>
