<?xml version="1.0" encoding="utf-8"?>
<!-- Generator: Adobe Illustrator 19.1.0, SVG Export Plug-In . SVG Version: 6.00 Build 0)  -->
<svg version="1.1" id="Layer_1" xmlns="http://www.w3.org/2000/svg" xmlns:xlink="http://www.w3.org/1999/xlink" x="0px" y="0px"
	 width="14.9px" height="14.9px" viewBox="-217.2 348 14.9 14.9" style="enable-background:new -217.2 348 14.9 14.9;"
	 xml:space="preserve">
<style type="text/css">
	.st0{fill:#22CFED;}
	.st1{fill:#FFFFFF;}
</style>
<g>
	<circle class="st0" cx="-209.8" cy="355.5" r="7.5"/>
	<path class="st1" d="M-209.7,352.7C-209.7,352.7-209.7,352.7-209.7,352.7c-0.1,0-0.1,0-0.1,0c-2.2,0-3.9,2.2-3.9,2.8
		s1.7,2.8,3.9,2.8c0,0,0,0,0.1,0c0,0,0,0,0.1,0c2.2,0,3.9-2.2,3.9-2.8S-207.5,352.7-209.7,352.7z M-208.1,355.6
		c0,0.8-0.6,1.4-1.4,1.4h-0.5c-0.8,0-1.4-0.6-1.4-1.4v-0.3c0-0.8,0.6-1.4,1.4-1.4h0.5c0.8,0,1.4,0.6,1.4,1.4V355.6z"/>
	<circle class="st1" cx="-209.8" cy="355.5" r="0.9"/>
</g>
</svg>
