<?xml version="1.0" encoding="utf-8"?>
<!-- Generator: Adobe Illustrator 19.1.0, SVG Export Plug-In . SVG Version: 6.00 Build 0)  -->
<svg version="1.1" id="Layer_1" xmlns="http://www.w3.org/2000/svg" xmlns:xlink="http://www.w3.org/1999/xlink" x="0px" y="0px"
	 width="167.9px" height="65.9px" viewBox="0 0 167.9 65.9" style="enable-background:new 0 0 167.9 65.9;" xml:space="preserve">
<style type="text/css">
	.bg-1{fill:#F11133;}
	.fg-1{fill:#FFFFFF;}
</style>
<polygon class="bg-1" points="163.6,0 110.6,0 106.3,0 90.4,0 86.1,0 81.8,0 77.5,0 33.1,0 28.8,0 4.3,0 0,0 0,65.9 4.3,65.9 
	28.8,65.9 33.1,65.9 66.9,65.9 71.2,65.9 86.1,65.9 90.4,65.9 95.8,65.9 100.1,65.9 153,65.9 157.3,65.9 167.9,0 "/>
<g>
	<path class="fg-1" d="M25.1,19.8c0.9,0.8,1.3,1.9,1.3,3.5c0,2.3-0.8,4-2.5,4.9c-1.7,0.9-4.1,1.4-7.1,1.4H9.5V8.1h6.4
		c3.1,0,5.5,0.4,7.1,1.3s2.5,2.3,2.5,4.3c0,1.3-0.4,2.3-1.1,3c-0.8,0.8-1.7,1.3-2.8,1.6C23,18.5,24.2,19.1,25.1,19.8z M15.2,12.1
		v4.5h1.5c1,0,1.8-0.2,2.2-0.6c0.5-0.4,0.7-1,0.7-1.8c0-0.8-0.3-1.3-0.8-1.6c-0.5-0.3-1.3-0.5-2.5-0.5H15.2z M19.5,25
		c0.6-0.4,0.9-1,0.9-2c0-1-0.3-1.6-0.9-2.1c-0.6-0.4-1.4-0.6-2.5-0.6h-1.9v5.3h1.5C18,25.6,18.9,25.4,19.5,25z"/>
	<path class="fg-1" d="M36.2,21.7h-1.6v7.9h-5.7V8.1h7.5c3,0,5.3,0.5,6.8,1.6c1.5,1.1,2.2,2.8,2.2,5.1c0,1.4-0.3,2.5-0.9,3.4
		c-0.6,0.9-1.6,1.7-3,2.4l5.4,9h-6.4L36.2,21.7z M34.6,17.8h1.9c2,0,3-1,3-3c0-0.9-0.3-1.6-0.8-2c-0.5-0.4-1.4-0.7-2.5-0.7h-1.6
		V17.8z"/>
	<path class="fg-1" d="M61.9,8.1l-0.6,4.1h-7.3v4.6h6.4v3.9h-6.4v4.9h7.8v4.1H48.2V8.1H61.9z"/>
	<path class="fg-1" d="M75.9,29.7l-1-4.4h-5.7l-1,4.4h-6l6.4-21.5h6.9L82,29.7H75.9z M70.1,21.2H74l-2-9L70.1,21.2z"/>
	<path class="fg-1" d="M88.9,8.1v21.5h-5.7V8.1H88.9z M101.5,8.1L95,17.7l7,11.9h-6.6l-6.4-11.5l6.4-10.1H101.5z"/>
	<path class="fg-1" d="M109.1,8.1v21.5h-5.7V8.1H109.1z"/>
	<path class="fg-1" d="M129.6,29.7h-7.2L117,13.4l0.1,0.7c0.2,1.4,0.4,2.8,0.5,4c0.1,1.3,0.2,2.7,0.2,4.3v7.3h-5.1V8.1h7.1l5.6,16.3
		c-0.2-1.5-0.4-2.9-0.6-4.2c-0.1-1.2-0.2-2.7-0.2-4.3V8.1h5.1V29.7z"/>
	<path class="fg-1" d="M150.3,10.3l-2.8,2.9c-0.8-0.6-1.5-1-2.1-1.2c-0.6-0.3-1.3-0.4-2.2-0.4c-1.5,0-2.8,0.6-3.6,1.8
		c-0.9,1.2-1.3,3-1.3,5.5c0,1.8,0.1,3.2,0.4,4.3c0.3,1,0.7,1.8,1.3,2.2c0.6,0.5,1.3,0.7,2.3,0.7c0.9,0,1.8-0.2,2.5-0.6v-4.4h-2.4
		l-0.6-3.9h8.6v10.7c-1.1,0.7-2.4,1.3-3.8,1.7c-1.4,0.4-2.8,0.6-4.2,0.6c-6.7,0-10.1-3.8-10.1-11.3c0-2.4,0.5-4.4,1.4-6.1
		s2.2-3,3.8-3.9c1.6-0.9,3.4-1.3,5.4-1.3C145.8,7.6,148.2,8.5,150.3,10.3z"/>
	<path class="fg-1" d="M26.5,59.7h-7.2l-5.5-16.2l0.1,0.7c0.2,1.4,0.4,2.8,0.5,4c0.1,1.3,0.2,2.7,0.2,4.3v7.3H9.5V38.1h7.1l5.6,16.3
		c-0.2-1.5-0.4-2.9-0.6-4.2c-0.1-1.2-0.2-2.7-0.2-4.3v-7.8h5.1V59.7z"/>
	<path class="fg-1" d="M43.7,38.1l-0.6,4.1h-7.3v4.6h6.4v3.9h-6.4v4.9h7.8v4.1H30V38.1H43.7z"/>
	<path class="fg-1" d="M71,38.1l-3.3,21.5h-7.5l-2.3-16l-2.5,16h-7.3l-3.3-21.5h5.7l1.8,17.3L55,38.1h6l2.4,17.3l2.2-17.3H71z"/>
	<path class="fg-1" d="M84.4,38.3c1.2,0.5,2.4,1.2,3.4,2.1l-2.6,3c-1.5-1.2-3-1.8-4.7-1.8c-0.8,0-1.5,0.2-1.9,0.5
		c-0.4,0.3-0.7,0.8-0.7,1.3c0,0.4,0.1,0.8,0.3,1c0.2,0.3,0.6,0.5,1.1,0.8c0.5,0.2,1.4,0.6,2.5,0.9c2.2,0.7,3.8,1.6,4.9,2.7
		s1.5,2.5,1.5,4.4c0,1.4-0.4,2.6-1.1,3.6c-0.7,1-1.7,1.9-3.1,2.4c-1.3,0.6-2.9,0.9-4.7,0.9c-3.4,0-6.2-1-8.4-3.1l2.8-3.1
		c1.7,1.4,3.5,2.1,5.4,2.1c1,0,1.7-0.2,2.3-0.6c0.5-0.4,0.8-1,0.8-1.7c0-0.5-0.1-0.9-0.3-1.2c-0.2-0.3-0.6-0.6-1.1-0.9
		c-0.5-0.3-1.3-0.5-2.3-0.9c-2.4-0.8-4.2-1.7-5.1-2.8c-1-1.1-1.5-2.4-1.5-4.1c0-1.3,0.3-2.4,1-3.4c0.7-1,1.7-1.7,2.9-2.2
		c1.2-0.5,2.6-0.8,4.1-0.8C81.7,37.6,83.2,37.8,84.4,38.3z"/>
</g>
</svg>
