<?xml version="1.0" encoding="utf-8"?>
<!-- Generator: Adobe Illustrator 19.1.0, SVG Export Plug-In . SVG Version: 6.00 Build 0)  -->
<svg version="1.1" id="Layer_1" xmlns="http://www.w3.org/2000/svg" xmlns:xlink="http://www.w3.org/1999/xlink" x="0px" y="0px"
	 width="1157.3px" height="163.5px" viewBox="0 0 1157.3 163.5" style="enable-background:new 0 0 1157.3 163.5;"
	 xml:space="preserve">
<g>
	<path d="M768.6,58.7V112l24.3,17l37.4-22.8V54.6L805.8,37L768.6,58.7z M809.1,116l-19.3-11.8V50.6l19.3,11.8V116z"/>
	<path d="M647.8,109V98.8h0V65h0V4.3V1.2l-21,12.8v60.2v24.7v6.8v7.3c0,8.2,5,15.1,11.3,16.2l20.3-13.9
		C654,118.2,647.8,118,647.8,109z"/>
	<path d="M1004.8,37L1004.8,37L1004.8,37L1004.8,37l-16.6,11.5c-1.6-6-5.8-10.6-10.9-11.5l-20.7,14.3c4.6-3,10.8-2.9,10.8,6.3v13.8
		h0v22.9v7.4v29.6h0v25.1v3.1l21.5-13.1v-15.1v-12.9l16.9,9.9l21.4-20.8V89.8v-2.1v-2v-9.3v-9.1v-4.2v-3.7
		C1027.2,39.9,1004.9,37,1004.8,37z M1005.8,76.4v2.5v6.7v2v21.2l-16.9-9.8v-5.4h0V74.4v-3.1V53.6l4.8-3.3l0,0
		c5.5,0,12.1,7.2,12.1,13c0,5.8,0,10.8,0,10.8l0,0V76.4z"/>
	<path d="M946.9,105.7V65.1l0,0V31.5c2,0,5,0,9.7,0c-8.9-4.6-9.7-17.4-9.7-20.6v-0.7l-21,12.8L916,29c0,0,9.9,0.6,9.9,7.5v37.7l0,0
		v31.4H946.9z"/>
	<polygon points="925.9,129.1 946.9,116.3 946.9,105.7 925.9,105.7 	"/>
	<path d="M1147.6,105.7V65.1l0,0V31.5c2,0,5,0,9.7,0c-8.9-4.6-9.7-17.4-9.7-20.6v-0.7l-21,12.8l-9.9,6.2c0,0,9.9,0.6,9.9,7.5v37.7v0
		v31.4H1147.6z"/>
	<polygon points="1126.6,129.1 1147.6,116.3 1147.6,105.7 1126.6,105.7 	"/>
	<path d="M253,54.8l-24.6-17.7L190.9,59v53.6l15.3,10.2c0,0,0,0,0,0l9.7,6.5l12.9-9l17.8-12.2c0,0,0-0.1,0-0.7V105
		c0,0-9.5,9-18,10.7c-2.5,0.4-4.8,0.3-6.7-0.4c-6.2-2.7-9.8-8-9.8-11.8v-25L253,54.8L253,54.8L253,54.8L253,54.8L253,54.8z
		 M212.3,50.8l21.2,12.8L212.3,76V50.8z"/>
	<path d="M470.1,54.6l-24.6-17.7L408,58.8v53.6l15.3,10.2c0,0,0,0,0,0l9.7,6.5l12.9-9l17.8-12.2c0,0,0-0.1,0-0.7v-2.2
		c0,0-9.5,9-18,10.7c-2.5,0.4-4.8,0.3-6.7-0.4c-6.2-2.7-9.8-8-9.8-11.8v-25L470.1,54.6L470.1,54.6L470.1,54.6L470.1,54.6L470.1,54.6
		z M429.4,50.6l21.2,12.8l-21.2,12.4V50.6z"/>
	<path d="M538.5,54.6l-24.6-17.7l-37.4,21.9v53.6l15.3,10.2c0,0,0,0,0,0l9.7,6.5l12.9-9l17.8-12.2c0,0,0-0.1,0-0.7v-2.2
		c0,0-9.5,9-18,10.7c-2.5,0.4-4.8,0.3-6.7-0.4c-6.2-2.7-9.8-8-9.8-11.8v-25L538.5,54.6L538.5,54.6L538.5,54.6L538.5,54.6L538.5,54.6
		z M497.8,50.6L519,63.4l-21.2,12.4V50.6z"/>
	<path d="M909.1,109V98.8h0v-5.1v-26v-6.9v-7.2c0-8.2-5-15.1-11.3-16.2l-20.3,13.9c4.5-3,10.6-2.8,10.6,6.1v10.2h0v31.1v5.7v3.9
		l-13.8,8.5c-3.1,0.2-5.9-1.9-5.9-7.8V98.8h0v-5.1v-26h0.1V53.7c0-8.2-5-15.1-11.3-16.2l-20.3,13.9c4.5-3,10.6-2.8,10.6,6.1v3.3
		h-0.1v37.9v5.7v8.4c0,8.2,5,15.1,11.3,16.2l0.6-0.4l0,0l28.8-17.6v1.8c0,8.2,5,15.1,11.3,16.2l20.3-13.9
		C915.3,118.1,909.1,117.9,909.1,109z"/>
	<path d="M1106.1,109V98.8h0v-5.1v-26v-6.9v-7.2c0-8.2-5-15.1-11.3-16.2l-20.3,13.9c4.5-3,10.6-2.8,10.6,6.1v10.2h0v31.1v5.7v3.9
		l-13.8,8.5c-3.1,0.2-5.9-1.9-5.9-7.8V98.8h0v-5.1v-26h0.1V53.7c0-8.2-5-15.1-11.3-16.2l-20.3,13.9c4.5-3,10.6-2.8,10.6,6.1v3.3
		h-0.1v37.9v5.7v8.4c0,8.2,5,15.1,11.3,16.2l0.6-0.4l0,0l28.8-17.6v1.8c0,8.2,5,15.1,11.3,16.2l20.3-13.9
		C1112.2,118.1,1106.1,117.9,1106.1,109z"/>
	<path d="M178.6,109.1v-4h0.1V54.8l-24.5-17.6l-15.9,9.3V32.1V18v-1h0C137.9,9.3,133,2.9,127,1.8l-20.3,13.9
		c3.9-2.6,9.1-2.8,10.3,3.2v40v40.3v5.7v8.4c0,8.2,5,15.1,11.3,16.2l20.3-13.9c-4.5,3-10.6,2.8-10.6-6.1v-4.5h1l-0.8-0.5V58.9h0
		v-8.1l19.3,11.8v36.4h0V113c0,8.2,5,15.1,11.3,16.2l20.3-13.9C184.8,118.2,178.6,118.1,178.6,109.1z"/>
	<path d="M87.4,109.5c-17.9,0-29.7-5-37.6-11.9l1.5-1L69,84.4l3.3-2.3l0,0l5.9-4.1v-8.1v-1.1v-9.7H56.8v8.3l0,0V83h0
		c0,0.2,0,0.4,0,0.6c-0.1,1.8-0.8,3.8-1.9,5.8c-1.6,2.5-4,4.9-6.5,6.9C35.6,83.9,34.6,66.7,34.6,61.7h0c0-28.4,8.9-37.8,8.9-37.8v-1
		h13.3v2.5v33.5h21.4V23h22l8.5-21.2h-4.2H31h-1.8v0H16.4C8.1,1.7,1.1,6.8,0,13.2l14.1,20.5c-3-4.5-2.8-10.7,6.2-10.7h10.3v0h1.7
		c-9,7.9-20.2,21.2-20.2,38.7l0,0c0,23.5,13.6,62.1,62.6,67.8l12.7-8.1v0l18.7-11.9C106.2,109.5,98.6,109.5,87.4,109.5L87.4,109.5z"
		/>
	<path d="M715.9,38l-20.1,13.8c4.4-2.9,10.5-2.8,10.5,6.1v4.5h-1l0.7,0.5v45.1h0v8.1L687,104.3v-36v-14c0-8.1-5-14.9-11.2-16
		l-20.1,13.8c4.4-2.9,10.5-2.8,10.5,6.1v3.9h-0.1V112l24.3,17.4l15.8-9.2v4h0v26.4L687,139l-21.1,7.6l24.1,16.9l36.7-22.3l0.5-0.2
		v-33.1V68v-5.6V54C727.2,45.9,722.2,39.1,715.9,38z"/>
	<path d="M385.4,37.4l-20.3,13.9c4.5-3,10.6-2.8,10.6,6.1v10.2h0v6.4h0v10.2h0v20.2v3.9l-12.9,7.9l-0.8,0.5
		c-3.2,0.2-5.9-1.8-5.9-7.8V98.7h0v-5.1v-26h0.1V53.6c0-8.2-5-15.1-11.3-16.2l-20.3,13.9c4.5-3,10.6-2.8,10.6,6.1v3.3H335v37.9v5.7
		v4.1l-0.2-0.4l-13.9,8.5c-3.2,0.2-5.9-1.8-5.9-7.8V98.7h0v-5.1v-26h0.1V53.6c0-8.2-5-15.1-11.3-16.2l-20.3,13.9
		c4.5-3,10.6-2.8,10.6,6.1v3.3h-0.1v37.9v5.7v8.4c0,8.2,5,15.1,11.3,16.2l0.6-0.4l0,0l29.2-17.9v2.1c0,8.2,5,15.1,11.3,16.2l0.6-0.4
		l0,0l30.1-18.5l12.3-7.4l-0.1,0c4.4-2.7,7.4-8.2,7.4-14.6v-2.1v-12V60.8v-7.2C396.7,45.4,391.7,38.5,385.4,37.4z"/>
	<path d="M608.2,110.6c-5.4-7.6-10.9-22.4-15.9-27.4l10.4-7c4.3-3,6.7-7.8,6.7-12.9c0-10.2-9.6-16.8-16.3-18.9l-22.4,15.5
		c5.9-3.5,19.8,3.7,19.8,15.3c0,4.8-2.4,9.2-6.3,11.8l-13.5,9.4c0.7-0.4,1.5-0.7,2.2-0.7c9.1,0.2,13.9,22.4,21.8,30.1
		c1.7,1.9,3.9,3.1,6.3,3.5l20.2-13.9C615.4,119.5,611.9,116.3,608.2,110.6z"/>
	<path d="M570.7,16.1c0-8.1-5-15-11.3-16.1l-20.2,13.9c4.3-3,10.5-2.8,10.5,6.1v93.4c0,8.1,5,15,11.3,16.1l20.2-13.9
		c-4.4,3-10.5,2.8-10.5-6.1V96.5V59.9V16.1z"/>
</g>
</svg>
