<?xml version="1.0" encoding="utf-8"?>
<!-- Generator: Adobe Illustrator 19.1.0, SVG Export Plug-In . SVG Version: 6.00 Build 0)  -->
<svg version="1.1" id="Layer_1" xmlns="http://www.w3.org/2000/svg" xmlns:xlink="http://www.w3.org/1999/xlink" x="0px" y="0px"
	 width="1179.9px" height="167.8px" viewBox="281 79.2 1179.9 167.8" style="enable-background:new 281 79.2 1179.9 167.8;"
	 xml:space="preserve">
<g>
	<g>
		<path d="M937.2,191.6v-10.2h0v-33.8h0V87v-3.1l-21,12.8v60.1v24.6v6.8v7.3c0,8.2,5,15,11.3,16.1l20.2-13.9
			C943.3,200.7,937.2,200.5,937.2,191.6"/>
	</g>
	<g>
		<path d="M1307.9,117.7L1307.9,117.7L1307.9,117.7L1307.9,117.7L1307.9,117.7l-16.6,11.5c-1.6-6-5.8-10.6-10.9-11.5l-20.7,14.2
			c4.6-3,10.8-2.8,10.8,6.3V152h0v22.9v7.4v29.6h0V237v3.1L1292,227v-15.1V199l16.9,9.9l21.4-20.8v-17.6v-2.1v-2v-9.3v-9.1v-4.2
			v-3.7C1330.3,120.7,1308,117.7,1307.9,117.7 M1308.9,189.6l-16.9-9.8v-5.4h0v-19.2V152v-17.7l4.7-3.3l0,0c5.5,0,12.1,7.2,12.1,13
			v10.8l0,0v2.3v2.5v6.7v2V189.6z"/>
	</g>
	<g>
		<polygon points="1250,170.1 1250,147.3 1250,94 1250,90.9 1229,103.7 1229,155 		"/>
	</g>
	<g>
		<polygon points="1250,186.4 1250,145.8 1229,130.7 1229,153.5 1229,186.4 		"/>
	</g>
	<g>
		<polygon points="1250,197 1250,186.4 1229,186.4 1229,209.7 		"/>
	</g>
	<g>
		<polygon points="1229,103.7 1219.1,109.8 1233.5,110.4 		"/>
	</g>
	<g>
		<path d="M1219.1,109.8c0,0,9.9,0.6,9.9,7.5c0,6.9,4.5-4.6,4.5-4.6l-1.2-9.4L1219.1,109.8z"/>
	</g>
	<g>
		<path d="M1250,90.9c0,0-0.5,16.1,9.7,21.4h-13.4L1250,90.9z"/>
	</g>
	<g>
		<polygon points="1450.5,170.1 1450.5,147.3 1450.5,94 1450.5,90.9 1429.5,103.7 1429.5,155 		"/>
	</g>
	<g>
		<polygon points="1450.5,186.4 1450.5,145.8 1429.5,130.7 1429.5,153.5 1429.5,186.4 		"/>
	</g>
	<g>
		<polygon points="1450.5,197 1450.5,186.4 1429.5,186.4 1429.5,209.7 		"/>
	</g>
	<g>
		<polygon points="1429.5,103.7 1419.6,109.8 1434,110.4 		"/>
	</g>
	<g>
		<path d="M1419.6,109.8c0,0,9.9,0.6,9.9,7.5c0,6.9,4.5-4.6,4.5-4.6l-1.2-9.4L1419.6,109.8z"/>
	</g>
	<g>
		<path d="M1450.5,90.9c0,0-0.5,17.2,10.4,22.9h-14.3L1450.5,90.9z"/>
	</g>
	<g>
		<path d="M493,185.7c0,5.4,7.1,13.6,18.6,13.6c-7.1,4.5-18,1.4-18,1.4L488,193L493,185.7z"/>
	</g>
	<g>
		<path d="M502.7,197.5c5.8,2.4,16.7-1.7,24.7-7.9v0.7l-17.8,12.2L502.7,197.5z"/>
	</g>
	<g>
		<polygon points="509,119.4 471.7,141.3 471.7,194.8 493,209 493,187 493,133.1 514.5,146.1 533.7,137.1 		"/>
	</g>
	<g>
		<path d="M511.7,199.3L511.7,199.3l-5.8,1l-11.3-3.5l0.5-4.3l-10.6-3.8v6.5c0,3.6,1,6.9,2.6,9.7l9.7,6.5l27.1-18.9
			C522.2,193.6,513.4,199.4,511.7,199.3"/>
	</g>
	<g>
		<path d="M527.4,190.3v-3c0,0-11.6,11-20.6,11c-9,0,2.3,3.3,2.3,3.3L527.4,190.3z"/>
	</g>
	<g>
		<polyline points="525.4,139.4 488,161.3 492.1,161.3 533.7,137.1 		"/>
	</g>
	<g>
		<path d="M719,185.9c0,5.4,7.1,13.6,18.6,13.6c-7.1,4.5-18,1.4-18,1.4l-5.7-7.8L719,185.9z"/>
	</g>
	<g>
		<path d="M728.6,197.6c5.8,2.4,16.7-1.7,24.7-7.9v0.7l-17.8,12.2L728.6,197.6z"/>
	</g>
	<g>
		<polygon points="735,119.6 697.6,141.4 697.6,194.9 719,209.1 719,187.2 719,133.2 740.5,146.2 759.6,137.2 		"/>
	</g>
	<g>
		<path d="M737.6,199.5L737.6,199.5l-5.8,1l-11.3-3.5l0.5-4.3l-10.6-3.8v6.5c0,3.6,1,6.9,2.6,9.7l9.7,6.5l27.1-18.9
			C748.2,193.7,739.3,199.5,737.6,199.5"/>
	</g>
	<g>
		<path d="M753.4,190.4v-3c0,0-11.6,11-20.6,11c-9,0,2.3,3.3,2.3,3.3L753.4,190.4z"/>
	</g>
	<g>
		<polyline points="751.4,139.6 714,161.4 718.1,161.4 759.6,137.2 		"/>
	</g>
	<g>
		<path d="M787.3,185.9c0,5.4,7.1,13.6,18.6,13.6c-7.1,4.5-18,1.4-18,1.4l-5.7-7.8L787.3,185.9z"/>
	</g>
	<g>
		<path d="M796.9,197.6c5.8,2.4,16.7-1.7,24.7-7.9v0.7l-17.8,12.2L796.9,197.6z"/>
	</g>
	<g>
		<polygon points="803.3,119.6 765.9,141.4 765.9,194.9 787.3,209.1 787.3,187.2 787.3,133.2 808.8,146.2 827.9,137.2 		"/>
	</g>
	<g>
		<path d="M805.9,199.5L805.9,199.5l-5.8,1l-11.3-3.5l0.5-4.3l-10.6-3.8v6.5c0,3.6,1,6.9,2.6,9.7l9.7,6.5l27.1-18.9
			C816.5,193.7,807.6,199.5,805.9,199.5"/>
	</g>
	<g>
		<path d="M821.7,190.4v-3c0,0-11.6,11-20.6,11c-9,0,2.3,3.3,2.3,3.3L821.7,190.4z"/>
	</g>
	<g>
		<polyline points="819.7,139.6 782.3,161.4 786.4,161.4 827.9,137.2 		"/>
	</g>
	<g>
		<path d="M1212.3,189.7v-10.2h-21v14.1c0,8.2,5,15,11.3,16.1l20.2-13.9C1218.4,198.8,1212.3,198.6,1212.3,189.7"/>
	</g>
	<g>
		<path d="M1191.3,138.3v10.2h21v-14.1c0-8.2-5-15-11.3-16.1l-20.2,13.9C1185.2,129.2,1191.3,129.4,1191.3,138.3"/>
	</g>
	<g>
		<path d="M1150.8,138.3v10.2h21v-14.1c0-8.2-5-15-11.3-16.1l-20.2,13.9C1144.7,129.2,1150.8,129.4,1150.8,138.3"/>
	</g>
	<g>
		<polygon points="1191.3,141.6 1191.3,185.2 1212.3,197.3 1212.3,174.5 1212.3,141.6 		"/>
	</g>
	<g>
		<path d="M1171.7,189.7v-10.2h-21v14.1c0,8.2,5,15,11.3,16.1l20.2-13.9C1177.8,198.8,1171.7,198.6,1171.7,189.7"/>
	</g>
	<g>
		<polygon points="1150.7,141.6 1150.7,185.2 1171.7,197.3 1171.7,174.5 1171.7,141.6 		"/>
	</g>
	<g>
		<rect x="1175.9" y="181.5" transform="matrix(-0.5227 -0.8525 0.8525 -0.5227 1622.4972 1306.7385)" width="2.3" height="35.3"/>
	</g>
	<g>
		<path d="M1409,189.7v-10.2h-21v14.1c0,8.2,5,15,11.3,16.1l20.2-13.9C1415.1,198.8,1409,198.6,1409,189.7"/>
	</g>
	<g>
		<path d="M1388,138.3v10.2h21v-14.1c0-8.2-5-15-11.3-16.1l-20.2,13.9C1381.9,129.2,1388,129.4,1388,138.3"/>
	</g>
	<g>
		<path d="M1347.5,138.3v10.2h21v-14.1c0-8.2-5-15-11.3-16.1l-20.2,13.9C1341.4,129.2,1347.5,129.4,1347.5,138.3"/>
	</g>
	<g>
		<polygon points="1388,141.6 1388,185.2 1409,197.3 1409,174.5 1409,141.6 		"/>
	</g>
	<g>
		<path d="M1368.4,189.7v-10.2h-21v14.1c0,8.2,5,15,11.3,16.1l20.2-13.9C1374.5,198.8,1368.4,198.6,1368.4,189.7"/>
	</g>
	<g>
		<polygon points="1347.4,141.6 1347.4,185.2 1368.4,197.3 1368.4,174.5 1368.4,141.6 		"/>
	</g>
	<g>
		<rect x="1372.6" y="181.5" transform="matrix(-0.5227 -0.8525 0.8525 -0.5227 1922.032 1474.4385)" width="2.3" height="35.3"/>
	</g>
	<g>
		<path d="M459.4,191.4v-10.2h-21v14.1c0,8.2,5,15,11.3,16.1l20.2-13.9C465.6,200.5,459.4,200.3,459.4,191.4"/>
	</g>
	<g>
		<path d="M398.2,104.3v10.2h21v-14.1c0-8.2-5-15-11.3-16.1l-20.2,13.9C392.1,95.2,398.2,95.4,398.2,104.3"/>
	</g>
	<g>
		<path d="M418.9,191.7v-10.2h-21v14.1c0,8.2,5,15,11.3,16.1l20.2-13.9C425,200.8,418.9,200.6,418.9,191.7"/>
	</g>
	<g>
		<rect x="397.9" y="99.4" width="21.3" height="41.9"/>
	</g>
	<g>
		<polygon points="419.2,133.2 438.5,144.9 438.5,181.2 438.5,187.5 459.5,187.5 459.5,137.1 435.1,119.6 397.9,141.3 397.9,187.2 
			419.9,187.2 419.2,186.7 		"/>
	</g>
	<g>
		<path d="M301.3,105.4h10.3V84.2h-14.3c-8.3,0-15.2,5.1-16.3,11.5l14.1,20.5C292.1,111.6,292.3,105.4,301.3,105.4"/>
	</g>
	<g>
		<polygon points="310.1,84.2 311.9,84.2 385.3,84.2 389.5,84.2 381.1,105.4 310.1,105.4 		"/>
	</g>
	<g>
		<polygon points="359.1,141.4 359.1,100 337.7,84.6 337.7,107.9 337.7,141.4 		"/>
	</g>
	<g>
		<polygon points="359.1,152.2 359.1,141.4 337.7,141.4 337.7,165.3 		"/>
	</g>
	<g>
		<path d="M337.7,165c0.2,6.5-7.6,15.4-16.5,20.8c0.8,0.3,0.7,0.3,0.7,0.3l18.1-12.6L337.7,165z"/>
	</g>
	<g>
		<path d="M322,186.1l-2.8-1.1c0,0,14.6-7.1,17.9-15.7c3.2-8.6,2.4,3.4,2.4,3.4L322,186.1z"/>
	</g>
	<g>
		<path d="M338.8,149.4l-1,0.3v15.6h0c0.2,2.8-0.2,5.9-1.4,9c6.9-5.1,7.8-16.7,7.8-16.7L338.8,149.4z"/>
	</g>
	<g>
		<path d="M350.6,152.8c-2.1-2.5-4.9-4.6-8.3-5.9l-4.5-1.7v11.4l2.4,0.6l-0.8,12.1l-3,5.2l0,0c-0.6,1.6-9.3,8-10.9,9.2l27.8-19.1
			L350.6,152.8z"/>
	</g>
	<g>
		<polygon points="332.2,178.9 359.1,160.3 359.1,151.1 347.9,155.6 339.2,171.6 		"/>
	</g>
	<g>
		<path d="M293.1,144.1c0-29.4,31.4-46.9,31.4-46.9v9.2c0,0-8.9,9.3-8.9,37.7C315.5,172.5,293.1,144.1,293.1,144.1"/>
	</g>
	<g>
		<path d="M368.3,191.8c-50.2,0-52.8-39.8-52.8-47.7h-22.4c0,23.5,13.6,62,62.6,67.7l12.7-8.1v0l18.7-11.9L368.3,191.8L368.3,191.8z
			"/>
	</g>
	<g>
		<path d="M1005.2,120.7l-20,13.8c4.4-2.9,10.5-2.8,10.5,6.1v4.5h-1l0.7,0.5v45h0v8l-19.1-11.6v-36V137c0-8.1-5-14.9-11.2-16
			l-20,13.8c4.4-2.9,10.5-2.8,10.5,6.1v3.9h-0.1v49.8l24.2,17.4l15.7-9.2v4h0v26.4l-19.1-11.6l-21,7.6l24.1,16.8l36.6-22.3l0.5-0.2
			v-33v-39.9V145v-8.4C1016.4,128.6,1011.4,121.8,1005.2,120.7"/>
	</g>
	<g>
		<path d="M870.6,198.2L850.5,212c-6.3-1.1-11.3-7.9-11.3-16.1v-93.3c0-8.9-6.3-9.1-10.5-6.1l20.1-13.9c6.3,1.1,11.3,7.9,11.3,16.1
			v93.3C860.1,200.9,866.2,201.1,870.6,198.2 M910.5,198.2L890.4,212c-2.4-0.4-4.6-1.7-6.3-3.5c-7.9-7.8-12.7-29.9-21.8-30.1
			c-0.7,0-1.5,0.4-2.2,0.7l13.5-9.4c3.9-2.6,6.3-7,6.3-11.8c0-11.6-13.9-18.8-19.8-15.3l22.4-15.5c6.7,2,16.3,8.7,16.3,18.8
			c0,5.2-2.4,10-6.7,12.9l-10.3,7c5,5,10.5,19.8,15.9,27.3C901.3,198.9,904.8,202,910.5,198.2"/>
	</g>
	<path d="M573.9,101.1v3.9h-0.1v13.6h20.9v-7.4V97.2c0-8.1-5-14.9-11.2-16l-20,13.8C567.9,92.1,573.9,92.2,573.9,101.1z"/>
	<path d="M664.1,100.9v3.9H664v13.6h20.9V111V97.1c0-8.1-5-14.9-11.2-16l-20,13.8C658.1,91.9,664.1,92.1,664.1,100.9z"/>
	<path d="M619,101.1v3.9h-0.1v13.6h20.9v-7.4V97.2c0-8.1-5-14.9-11.2-16l-20,13.8C613,92.1,619,92.2,619,101.1z"/>
	<polygon points="639.8,161.1 618.9,161.1 618.9,194.2 643.1,211.6 658.9,202.4 658.9,198.1 639.8,186.5 	"/>
	<rect x="573.8" y="112.1" width="20.9" height="58.6"/>
	<rect x="618.9" y="112.1" width="20.9" height="58.6"/>
	<rect x="664" y="111.9" width="20.9" height="58.6"/>
	<path d="M1134.9,99.8l-28.5-20.4l-46.5,27.2v85.7l28,19.6l47-28.6V99.8z M1083.5,176.2V98.9l27.8,16.9v77.2L1083.5,176.2z"/>
	<polygon points="598,211.6 566.3,188.9 575.6,179.4 	"/>
	<polygon points="594.7,186.5 591.6,184.6 594.7,181.4 594.7,161.1 573.8,161.1 573.8,194.2 598,211.6 613.8,202.4 613.8,198.1 	"/>
	<polygon points="598,211.6 625.1,196.2 622.3,188.7 603.7,199.7 	"/>
	<polygon points="642.7,211.6 669.8,196.2 666.4,189.6 648.3,199.7 	"/>
	<polyline points="643.1,211.6 684.9,187.8 684.9,163.3 664,170.5 664,190.9 	"/>
</g>
</svg>
