<?xml version="1.0" encoding="utf-8"?>
<!-- Generator: Adobe Illustrator 19.1.0, SVG Export Plug-In . SVG Version: 6.00 Build 0)  -->
<svg version="1.0" id="Layer_1" xmlns="http://www.w3.org/2000/svg" xmlns:xlink="http://www.w3.org/1999/xlink" x="0px" y="0px"
	 width="420.2px" height="63.5px" viewBox="0 0 420.2 63.5" style="enable-background:new 0 0 420.2 63.5;" xml:space="preserve">
<style type="text/css">
	.st0{fill:none;stroke:#000000;stroke-miterlimit:10;}
	.st1{fill:none;}
</style>
<polygon points="60.9,38.8 60.9,21.9 63.4,20.7 63.4,37.7 71.6,44.4 70,46.3 "/>
<path d="M49.5,50.2V21.4l-3.7-3.6l1.3-1.1l4.4,4.5v24.9C51.5,46.2,51,49.8,49.5,50.2z"/>
<path d="M1.8,13.9l0.8-5.4c0,0,1.3-3.8,2.6-4.5s2.5-1.8,4.5-2.4S16,1.9,16,1.9l4.5,2.3c0,0,3.1,1.4,4.5,1.5c1.5,0.1,3.5-0.3,4.9-0.9
	s2.7-1.5,2.7-1.5l0.5,0.3c0,0-0.6,3.8-2,5.4c-1.4,1.6-2.7,2.7-4.5,2.9c-1.8,0.1-6.2,0.3-8.2-0.6c-2-0.9-6.5-2.2-7.6-2.3
	C9.7,9,6.4,10,5.7,10.3C4.9,10.5,1.8,13.9,1.8,13.9z"/>
<path d="M2.7,37.7c0,0-2.5-4.8-2.2-8.9s1.2-8,2.5-10c1.3-2,4.6-5.9,6-6.6s3.6-2.3,3.6-2.3s-4.9,8-5.4,10.2s-1.1,6.2,0,9
	s3.1,7.1,5.6,8.6s5.2,2.8,10,1.4c4.8-1.3,8.6-6.3,8.6-6.3l0.7-1c0,0,0.5,3.3-2.6,7.2c-3.1,3.9-8,6.5-8.7,6.7
	c-0.7,0.2-5.3,0.8-7.9-0.1c-2.5-0.9-5.5-2.4-6.7-3.6S3.2,38.7,2.7,37.7z"/>
<g>
	<polyline points="320.1,39.3 307.8,47.9 306.8,46.1 319.9,37.1 	"/>
	<path d="M298.4,18.7l5.9-5.6l6.4,5.9l-2.1,2.1c0,0,0,12.7,0,15.9c0,3.3,3.3,5.7,4.8,6.4c-1.5,1.3,0,0.1-5.7,4.6
		c-1.9-0.3-7.4-3.2-7.4-7.6c0-5.6,0-19.9,0-19.9L298.4,18.7z"/>
	<path d="M311.9,18.7l5.9-5.6l6.4,5.9l-2.1,2.1c0,0,0,12.7,0,15.9c0,3.3,3.3,5.7,4.8,6.4c-1.5,1.3,0,0.1-5.7,4.6
		c-1.9-0.3-7.4-3.2-7.4-7.6c0-5.6,0-19.9,0-19.9L311.9,18.7z"/>
</g>
<g>
	<polygon points="348.8,31.1 348.8,40.1 348.8,61.1 348.8,62.3 357.1,57.3 357.1,37.1 	"/>
	<path d="M357.1,30.9c0,0,0-6,0-9c0-3.4-4.2-6.6-4.2-6.6l-8.1,6.1c0,0,4.1,0.7,4.1,4.1s0,5.4,0,5.4H357.1z"/>
	<polygon points="363.6,42.9 357.1,39.1 357.1,38.7 356.9,38.7 356.9,46.4 363.6,50.3 371.8,42.3 371.8,34 363.6,34 	"/>
	<rect x="363.6" y="30.5" width="8.2" height="4.3"/>
	<rect x="348.8" y="28.5" width="8.3" height="8.8"/>
	<polygon points="357.1,51.5 357.1,37.1 348.8,31.1 348.8,40.1 348.8,51.5 	"/>
	<polygon points="371.8,25.4 371.8,35.6 366.1,29.6 	"/>
	<polyline points="352.2,23 363.2,15.3 364,16.9 352.4,25 	"/>
	<path d="M363.2,15.3l-5.5,5.1l0.7-0.4l0.5,0.4c2.1,0,4.6,2.8,4.6,5s0,4.1,0,4.1s8.2,1.8,8.2-5.6C371.8,16.5,363.2,15.3,363.2,15.3z
		"/>
	<polygon points="371.8,23.9 371.8,27 366.9,33.6 363.6,31.4 363.6,28.2 	"/>
</g>
<polyline class="st0" points="12.2,37.1 20.7,31.6 20.7,12.1 20.7,11.9 12.2,17.3 "/>
<line class="st0" x1="14" y1="35.9" x2="14" y2="16.2"/>
<line class="st0" x1="15.6" y1="34.9" x2="15.6" y2="15.2"/>
<polygon points="15.8,15.3 20.5,12.4 20.5,31.8 15.8,34.6 "/>
<path class="st0" d="M0.5,28.4c0-13.1,12.9-18.8,12.9-18.8s-8.6,9.1-6.4,18.4s8.5,12,11.9,12s10-2.4,13.6-8.8c0,5-6.1,15-15,15
	S0.5,39.7,0.5,28.4z"/>
<g>
	<path d="M28.5,39.8c0.5-0.5,1-1.1,1.4-1.7C29.5,38.7,29,39.3,28.5,39.8z"/>
	<path d="M19.4,44.2c-0.2,0-0.4,0-0.6,0c0,0,0,0,0,0C7.5,44.3,3.7,35.2,3.1,31.9c-0.5-3.2-0.2-6.5,0.2-8.3C4.9,16.3,9,12.8,9,12.8
		s-3.5,2.6-4.5,3.4c-1,0.8-3,5.7-3.6,7.8c-0.7,2.1-0.4,7,0.1,9.5c0.4,2.4,2.4,5.5,4.7,8.2c2.2,2.6,8.4,4.2,11.2,4.8s7.1-2.2,7.1-2.2
		s2.2-1.7,4.6-4.4c-0.4,0.4-0.8,0.8-1.3,1.1C23.5,43.5,21.1,44.1,19.4,44.2z"/>
</g>
<path d="M2.3,14.2c0,0,0.9-7.9,8.2-7.9s5.9,3.2,14,3.2s8.6-5.9,8.6-5.9l-1,3.8c0,0-1.5,2.7-2.9,3.4s-2.8,1.5-6.6,1.3
	c-3.8-0.2-7.1-1.8-7.1-1.8S12,9.1,10.1,9.2s-3.3,0.1-5.3,1.7S2.3,14.2,2.3,14.2z"/>
<path class="st0" d="M1.8,15.6c0,0-1.5-14.3,10.3-14.3c6.9,0,7.4,4.5,14.3,4.5c3,0,5.3-1.6,6.6-3.3c0.3,2.1-0.7,9.7-9,9.7
	S16.5,9.2,9.9,9.2S1.8,15.6,1.8,15.6z"/>
<polygon points="38,41.4 39.6,40.5 39.4,39.7 39.4,6.1 37.3,7.8 37.3,39.6 37.3,39.6 35.5,41.2 40.2,45.9 41.7,44.6 "/>
<path class="st0" d="M44.3,39.1c0,0,0,0,0-0.1h0v-7.9l0,0v-8V4.3v-3l-7.4,6.4v18.1l0,0V39h0c0,0.4,0,0.6,0,0.6l-1.8,1.5l5.3,5
	l5.7-5.2L44.3,39.1z"/>
<polyline class="st0" points="39.6,5.4 39.6,40.5 39.6,40.5 38.5,41.4 38.5,41.4 42.2,44.7 "/>
<polygon points="39,41.4 42.2,44.3 45.8,40.9 44.1,39.2 44.1,1.8 39.7,5.9 39.7,40 "/>
<g>
	<polygon points="188.8,41.2 190.4,40.3 190.1,39.5 190.1,5.9 188,7.7 188,39.4 188,39.4 186.3,41 191,45.8 192.5,44.5 	"/>
	<path class="st0" d="M195.1,38.9c0,0,0,0,0-0.1h0v-7.9l0,0v-8V4.1v-3l-7.4,6.4v18.1l0,0v13.2h0c0,0.4,0,0.6,0,0.6l-1.8,1.5l5.3,5
		l5.7-5.2L195.1,38.9z"/>
	<polygon points="189.7,41.2 192.9,44.1 196.6,40.7 194.9,39.1 194.9,1.6 190.5,5.7 190.5,39.8 	"/>
</g>
<polyline class="st0" points="45.8,18 49.2,21.3 49.2,50.9 "/>
<path class="st0" d="M44.3,19l5.8-5.8l6.4,6.4c0,0,0,17.7,0,21.7s-1.1,8.6-10.3,12.3c4.2-3.5,5.6-4.8,5.6-8.4c0-3.6,0-23.9,0-23.9
	V21l-4.6-4.6"/>
<path d="M47.4,16.4l2.7-2.7l6.1,6.1l0.1,23.9c0,0-0.7,4-2.4,5.2c-1.7,1.2-3.3,3.3-4.4,3.4s-1.3-0.1-0.9-0.5c0.4-0.4,3.4-3.8,3.3-5.2
	c-0.1-1.4,0-25.4,0-25.4L47.4,16.4z"/>
<line class="st0" x1="25.6" y1="12" x2="25.6" y2="38.3"/>
<polyline class="st0" points="75.3,41.4 68.1,35.5 68.1,35.5 68.1,31.8 80.3,23 73.9,12.5 60.9,22 60.9,38.8 70.1,46.5 79.3,37.2 
	"/>
<path class="st1" d="M62,19.8"/>
<polyline class="st0" points="72,44.6 63.4,37.7 63.4,20.2 "/>
<line class="st0" x1="68.1" y1="31.8" x2="68.1" y2="16.7"/>
<line class="st0" x1="76.5" y1="25.3" x2="70.1" y2="15"/>
<polygon points="76.4,25.8 70,15.6 74,12.7 80.1,23.1 "/>
<polygon points="63.1,20.4 68.1,16.9 68.1,35.3 75.1,41.2 72,44.3 63.4,37.7 "/>
<g>
	<path d="M115.8,11.9c0.9,0.2,1.6,0.6,2.2,1.3c0.6,0.6,1.1,1.3,1.5,2.1c0.1,0.3,0.2,0.6,0.3,0.9c0.1,0.3,0.2,0.5,0.2,0.8v20.2
		c0,1.2,0.4,2.2,1.3,3.1c0.9,0.9,1.8,1.4,2.8,1.6c0.1,0.1,0.2,0.1,0.3,0.1c0.1,0,0.2,0,0.3,0c0,0,0.1,0,0.2,0c0,0.1,0,0.1,0.1,0.1
		c0,0,0.1,0,0.2,0c0,0,0.1,0,0.2-0.1c0.4,0,0.8-0.3,1.1-0.6c0.3-0.4,0.5-0.8,0.5-1.2V21.3c-0.5-0.2-0.9-0.5-1.3-0.8
		c-0.4-0.3-0.8-0.7-1.2-1.3l-0.9,0.6l-0.9-1.4l8-5.8c0.6,1,1.1,1.8,1.8,2.5c0.6,0.6,1.3,1.1,2,1.3c0.2,0.1,0.4,0.1,0.6,0.2
		c0.2,0.1,0.4,0.1,0.6,0.1c0.2,0,0.3,0,0.4,0c0.1,0,0.3-0.1,0.4-0.1c0.2,0,0.4-0.1,0.6-0.2c0.2-0.1,0.4-0.2,0.5-0.3
		c-0.1,1.2-0.4,2.2-1,3c-0.6,0.9-1.3,1.5-2.3,2v19c0,0.3,0,0.5,0.2,0.8c0.1,0.3,0.2,0.6,0.4,1c0.2,0.3,0.3,0.5,0.4,0.7
		c0.1,0.2,0.3,0.4,0.4,0.6c-0.2,0-0.3,0-0.5,0c-0.2,0-0.3,0-0.5-0.1c-0.1,0-0.1,0-0.2,0c-0.1,0-0.1,0-0.2,0c-0.1,0-0.2,0-0.3,0
		c-0.1,0-0.2,0-0.3,0c-1.1,0-2.3,0.1-3.7,0.4c-1.3,0.3-2.7,0.7-4.1,1.2c-1,0.4-1.9,0.7-2.9,1.2c-1,0.4-1.9,0.9-2.8,1.3
		c-1.6-0.2-3-0.7-4.4-1.7c-1.3-1-2.4-2.3-3.3-3.8c-0.6,0.3-1.2,0.7-1.9,1.1c-0.7,0.5-1.5,0.9-2.3,1.4c-0.2,0.1-0.3,0.2-0.5,0.3
		c-0.2,0.1-0.3,0.2-0.5,0.4c-0.6,0.4-1.1,0.7-1.6,1.1c-0.5,0.4-1,0.7-1.4,1c-1.7-1.7-3.4-2.9-4.9-3.5c-1.5-0.6-2.8-0.9-3.9-0.9
		c-0.3,0-0.6,0-0.9,0c-0.3,0-0.5,0.1-0.7,0.2c0.2-0.6,0.4-1.2,0.8-1.7c0.4-0.6,0.8-1,1.3-1.4c0.2-0.2,0.4-0.3,0.6-0.4
		c0.2-0.1,0.3-0.2,0.5-0.3v-17c-0.3-0.8-0.7-1.3-1.2-1.7c-0.6-0.4-1.2-0.7-1.8-0.8c-0.3,0-0.5-0.1-0.7-0.1c-0.2,0-0.4,0-0.6,0h-0.2
		l7.4-7.4c1.5,0.4,2.6,1.2,3.5,2.4c0.9,1.2,1.3,2.6,1.4,4.2v19.4c0.3,0.1,0.6,0.1,0.9,0.2c0.3,0.1,0.7,0.2,1,0.4
		c0.6,0.2,1.2,0.5,1.7,0.8c0.6,0.3,1,0.6,1.4,1c0.1-0.1,0.2-0.2,0.3-0.3c0.1-0.1,0.2-0.1,0.3-0.2c0.1-0.1,0.2-0.2,0.3-0.2
		c0.1,0,0.2-0.1,0.3-0.2c0.2-0.1,0.3-0.2,0.5-0.3c0.2-0.1,0.3-0.2,0.5-0.2V21.8c-0.2-1-0.6-1.8-1.3-2.4c-0.7-0.6-1.5-0.9-2.3-1
		c-0.1,0-0.1,0-0.2,0c-0.1,0-0.2,0-0.3,0L115.8,11.9z"/>
</g>
<polyline class="st0" points="76.6,25.7 70.3,15.3 68.4,16.7 74.8,27 68.3,16.4 "/>
<polygon points="68.4,16.7 75.2,27 77,25.6 70.4,15.3 "/>
<g>
	<polygon points="140.1,38.8 140.1,21.9 142.5,20.7 142.5,37.7 150.8,44.4 149.2,46.3 	"/>
	<polyline class="st0" points="154.4,41.4 147.3,35.5 147.3,35.5 147.3,31.8 159.4,23 153,12.5 140.1,22 140.1,38.8 149.2,46.5 
		158.5,37.2 	"/>
	<polyline class="st0" points="151.1,44.6 142.5,37.7 142.5,20.2 	"/>
	<line class="st0" x1="147.3" y1="31.8" x2="147.3" y2="16.7"/>
	<line class="st0" x1="155.7" y1="25.3" x2="149.3" y2="15"/>
	<polygon points="155.5,25.8 149.2,15.6 153.2,12.7 159.2,23.1 	"/>
	<polygon points="142.3,20.4 147.3,16.9 147.3,35.3 154.2,41.2 151.1,44.3 142.5,37.7 	"/>
	<polyline class="st0" points="155.7,25.7 149.4,15.3 147.6,16.7 153.9,27 147.4,16.4 	"/>
	<polygon points="147.6,16.7 154.3,27 156.2,25.6 149.6,15.3 	"/>
</g>
<g>
	<polygon points="163.4,38.8 163.4,21.9 165.9,20.7 165.9,37.7 174.1,44.4 172.6,46.3 	"/>
	<polyline class="st0" points="177.8,41.4 170.6,35.5 170.6,35.5 170.6,31.8 182.8,23 176.4,12.5 163.4,22 163.4,38.8 172.6,46.5 
		181.9,37.2 	"/>
	<polyline class="st0" points="174.5,44.6 165.9,37.7 165.9,20.2 	"/>
	<line class="st0" x1="170.6" y1="31.8" x2="170.6" y2="16.7"/>
	<line class="st0" x1="179" y1="25.3" x2="172.7" y2="15"/>
	<polygon points="178.9,25.8 172.6,15.6 176.5,12.7 182.6,23.1 	"/>
	<polygon points="165.7,20.4 170.6,16.9 170.6,35.3 177.6,41.2 174.5,44.3 165.9,37.7 	"/>
	<polyline class="st0" points="179.1,25.7 172.8,15.3 171,16.7 177.3,27 170.8,16.4 	"/>
	<polygon points="171,16.7 177.7,27 179.6,25.6 173,15.3 	"/>
</g>
<path d="M212.2,40c-0.1,0-0.1,0-0.2,0c-0.2,0-0.5,0.1-0.7,0.1c-0.2,0-0.4,0.1-0.6,0.1c-0.8,0-1.5-0.3-2-0.9c-0.5-0.6-1-1.5-1.5-2.5
	c-0.6-1.1-1.1-2.5-1.7-4.1c-0.6-1.6-1.4-3.2-2.5-5l6.7-4.4c-0.4-0.5-0.8-1-1.2-1.7c-0.5-0.7-0.9-1.4-1.4-2.2
	c-0.1-0.2-0.3-0.5-0.4-0.7c-0.1-0.2-0.3-0.4-0.4-0.6c-0.4-0.7-0.7-1.4-1.1-2c-0.4-0.7-0.7-1.3-1-1.8l-8.6,6.2V23l4.1-2.7
	c0.1,0.2,0.3,0.5,0.4,0.8c0.1,0.3,0.3,0.6,0.4,0.8c0.1,0.2,0.3,0.5,0.4,0.7c0.1,0.2,0.3,0.5,0.4,0.7c0.3,0.5,0.6,0.9,0.9,1.3
	c0.3,0.4,0.5,0.7,0.8,0.9l-7.4,4.9v2.3l2-1.4c0.8,1.6,1.4,3.1,1.8,4.5c0.4,1.4,0.8,2.7,1.1,3.9c0.5,1.6,1.1,3,1.8,4.1
	c0.7,1.1,1.9,2,3.6,2.6l6.5-6.3C212.3,40,212.2,40,212.2,40z"/>
<polygon points="189.1,33 189.3,6.5 191.1,5 192.2,40.2 193.4,44 192.3,45.1 187,40.7 188.5,38.8 "/>
<g>
	<polygon points="220.2,46.7 220.3,46.7 220.3,46.6 	"/>
	<polygon points="225.7,39.8 224.6,38.7 224.6,31.9 224.6,31.9 224.6,0 216.2,7.3 216.2,39.2 214.2,40.9 220.2,46.7 220.2,46.7 
		226.4,40.5 	"/>
</g>
<g>
	<rect x="222.8" y="36" width="0.8" height="3.9"/>
</g>
<polygon points="47.7,38.6 45.3,41 45.9,41.9 48.4,39.6 "/>
<polygon points="33.9,42.8 36.2,41 36,39.8 33.2,42 "/>
<polygon points="198.3,38.6 195.8,41 196.5,41.9 199,39.6 "/>
<polygon points="184.4,42.8 186.8,41 186.5,39.8 183.8,42 "/>
<polygon points="226.9,38.6 224.4,41 225.1,41.9 227.6,39.6 "/>
<polygon points="213.5,42.8 215.8,41 215.6,39.8 212.9,42 "/>
<g>
	<polygon points="335.4,48.7 335.5,48.7 335.5,48.7 	"/>
	<polygon points="340.9,41.8 339.8,40.8 339.8,33.9 339.8,33.9 339.8,2 331.4,9.3 331.4,41.2 329.4,43 335.4,48.7 335.4,48.7 
		341.6,42.6 	"/>
</g>
<polygon points="333,40.7 330.6,43 331.3,43.9 333.8,41.6 "/>
<polygon points="319,42.8 321.3,41 321.1,39.8 318.4,42 "/>
<polygon points="246.5,52.5 241,57 237.2,53.2 236.5,53.9 246.1,63.5 255.8,55.4 255.8,52.5 "/>
<polygon points="255.8,36.9 255.8,53 246.5,52.5 246.5,42.5 "/>
<path d="M255.6,16.1c-0.1-0.3-0.2-0.6-0.3-0.9c-0.4-0.8-0.8-1.5-1.5-2.1c-0.6-0.6-1.4-1-2.2-1.3l-7.5,6.5c0.1,0,0.2,0,0.3,0
	c0.1,0,0.1,0,0.2,0c0.8,0.1,1.6,0.4,2.3,1c0.7,0.6,1.1,1.3,1.3,2.4v17.1c-0.2,0.1-0.3,0.1-0.5,0.2c-0.2,0.1-0.3,0.2-0.5,0.3
	c-0.1,0.1-0.2,0.1-0.3,0.2c-0.1,0.1-0.2,0.1-0.3,0.2c-0.1,0.1-0.2,0.1-0.3,0.2c-0.1,0.1-0.2,0.2-0.3,0.3c-0.4-0.4-0.9-0.7-1.4-1
	c-0.6-0.3-1.1-0.6-1.7-0.8c-0.4-0.2-0.7-0.3-1-0.4c-0.3-0.1-0.6-0.2-0.9-0.2V18.5c-0.1-1.6-0.6-3-1.4-4.2c-0.9-1.2-2-1.9-3.5-2.4
	l-7.4,7.4h0.2c0.2,0,0.4,0,0.6,0c0.2,0,0.5,0.1,0.7,0.1c0.7,0.2,1.3,0.4,1.8,0.8c0.6,0.4,1,1,1.2,1.7v17l7.2,8l15.5-10.1v-20
	C255.8,16.7,255.7,16.4,255.6,16.1z"/>
<polygon points="273.2,20.9 273.2,38.7 282,47.1 288.1,42.8 280.7,34.8 280.7,16 "/>
<polygon points="295,38.4 295,20.6 286.1,12.2 280.1,16.6 287.5,24.5 287.5,43.2 "/>
<polygon points="273.2,20.9 286.2,12.2 280.7,16.1 "/>
<polygon points="282,47.1 295,38.4 287,43.2 "/>
<rect x="327.6" y="15.5" width="16.2" height="4.6"/>
<g>
	<polyline points="396.5,39.3 384.1,47.9 383.2,46.1 396.2,37.1 	"/>
	<path d="M374.7,18.7l5.9-5.6L387,19L385,21c0,0,0,12.7,0,15.9c0,3.3,3.3,5.7,4.8,6.4c-1.5,1.3,0,0.1-5.7,4.6
		c-1.9-0.3-7.4-3.2-7.4-7.6c0-5.6,0-19.9,0-19.9L374.7,18.7z"/>
	<path d="M388.2,18.7l5.9-5.6l6.4,5.9l-2.1,2.1c0,0,0,12.7,0,15.9c0,3.3,3.3,5.7,4.8,6.4c-1.5,1.3,0,0.1-5.7,4.6
		c-1.9-0.3-7.4-3.2-7.4-7.6c0-5.6,0-19.9,0-19.9L388.2,18.7z"/>
</g>
<g>
	<polygon points="411.8,48.7 411.8,48.7 411.9,48.7 	"/>
	<polygon points="417.2,41.8 416.2,40.8 416.2,33.9 416.2,33.9 416.2,2 407.8,9.3 407.8,41.2 405.8,43 411.8,48.7 411.8,48.7 
		418,42.6 	"/>
</g>
<polygon points="409.4,40.7 407,43 407.6,43.9 410.1,41.6 "/>
<polygon points="395.4,42.8 397.7,41 397.5,39.8 394.7,42 "/>
<rect x="404" y="15.5" width="16.2" height="4.6"/>
<rect x="14.1" y="15.8" width="1.4" height="19.4"/>
</svg>
