<?xml version="1.0" encoding="utf-8"?>
<!-- Generator: Adobe Illustrator 19.1.0, SVG Export Plug-In . SVG Version: 6.00 Build 0)  -->
<svg version="1.1" id="Layer_1" xmlns="http://www.w3.org/2000/svg" xmlns:xlink="http://www.w3.org/1999/xlink" x="0px" y="0px"
	 width="1179.9px" height="167.8px" viewBox="281 79.2 1179.9 167.8" style="enable-background:new 281 79.2 1179.9 167.8;"
	 xml:space="preserve">
<style type="text/css">
	.st0{fill:#ED2C24;}
</style>
<g>
	<polygon class="st0" points="1203.6,246.2 1232.9,246.2 1232.9,102.4 1250.6,102.4 1250.6,79 1187.1,79 1187.1,102.4 1203.6,102.4 
			"/>
	<polygon class="st0" points="298.1,247.1 327.4,247.1 327.4,103.2 344.6,103.2 344.6,79.8 280.9,79.8 280.9,103.2 298.1,103.2 	"/>
	<polygon class="st0" points="1397.2,79 1397.2,102.4 1413.7,102.4 1413.7,246.2 1443.1,246.2 1443.1,102.4 1460.8,102.4 1460.8,79 
			"/>
	<path class="st0" d="M1285.7,177.6h3.1h5.6c13.9,0,25.2-11.3,25.2-25.2v-18.9v-3.3v-7v-10.7v-8.3c0-13.9-11.3-25.2-25.2-25.2h-5.6
		h-3.1h-6.8h-22.5v167.2h29.3V177.6z M1288.8,105.2h1.9v7.2v10.7v7v3.3v17.9h-1.9h-3.1v-46.1H1288.8z"/>
	<polygon class="st0" points="426.1,79.9 426.1,246.9 443,246.9 443,246.9 488.7,246.9 488.7,217.6 455.4,217.6 455.4,178.1 
		481.5,178.1 481.5,148.7 455.4,148.7 455.4,109.2 488.7,109.2 488.7,79.9 455.4,79.9 455.4,79.9 	"/>
	<polygon class="st0" points="682.1,246.7 727.7,246.7 727.7,217.4 694.5,217.4 694.5,177.9 720.6,177.9 720.6,148.5 694.5,148.5 
		694.5,109 727.7,109 727.7,79.7 694.5,79.7 694.5,79.7 665.1,79.7 665.1,246.7 682.1,246.7 	"/>
	<polygon class="st0" points="750.2,246.7 795.9,246.7 795.9,217.4 762.6,217.4 762.6,177.9 788.7,177.9 788.7,148.5 762.6,148.5 
		762.6,109 795.9,109 795.9,79.7 762.6,79.7 762.6,79.7 733.3,79.7 733.3,246.7 750.2,246.7 	"/>
	<polygon class="st0" points="904,246.7 949.6,246.7 949.6,217.4 916.4,217.4 916.4,79.7 887,79.7 887,246.7 904,246.7 	"/>
	<polygon class="st0" points="956.9,246.3 986.6,246.3 986.6,180.2 1015.9,79.8 986.6,79.8 971.6,134.8 956.9,79.8 927.5,79.8 
		956.9,179.8 	"/>
	<polygon class="st0" points="830.2,179.4 850.3,246.5 879.6,246.5 878.3,241.9 878.3,242 853.3,158 879.3,79.7 879.2,79.7 
		850,79.7 830.2,142.2 830.2,79.7 800.8,79.7 800.8,246.7 830.2,246.7 	"/>
	<path class="st0" d="M1070.9,246.3h5.5v0h3.3h3.7h1.8c13.9,0,25.2-11.3,25.2-25.3V104.3c0-14-11.3-25.3-25.2-25.3h-4.3h-1.3h-3.2
		h-5.6c-13.9,0-25.2,11.3-25.2,25.3V221C1045.7,235,1057,246.3,1070.9,246.3z M1074.6,105.3h1.9v0h3.2v0h1.9v115.8h-5.1h-0.1h-1.8
		V105.3z"/>
	<path class="st0" d="M1116.7,221.1c0,13.9,11.3,25.2,25.2,25.2h4.7h0.8h3.2h5.2h0.3c13.9,0,25.2-11.3,25.2-25.2V112.9v-4.3V79
		h-28.9v29.6v4.3v108.3h-1.9h-4v0h-1V106.3l0,0V79h-28.9v33.8h0V221.1z"/>
	<path class="st0" d="M1351.3,246.3h4.7h0.8h3.2h5.2h0.3c13.9,0,25.2-11.3,25.2-25.2V115.2v-6.5V79h-28.9v29.6v6.5v106h-1.9h-4v0h-1
		v-106v-8.9V79h-28.9v27.2v8.9v105.9C1326.1,235,1337.4,246.3,1351.3,246.3z"/>
	<g>
		<path class="st0" d="M660.1,79.7l-14.8,167.3H604c-3.8-25.7-7.1-54.9-10-87.7c-1.3,14.1-4.4,43.3-9.2,87.7h-41.1L528.8,79.7H561
			l3.5,58.4l3.4,56.4c1.2-29.2,4.3-67.5,9.2-114.8h34.4c0.5,4.9,1.7,23.3,3.6,55.2l3.7,63.6c1.9-40.5,5-80.1,9.2-118.8H660.1z"/>
	</g>
	<polygon class="st0" points="389.4,79.9 389.4,148.8 378.4,148.8 378.4,79.9 349,79.9 349,246.9 378.4,246.9 378.4,178.1 
		389.4,178.1 389.4,246.9 418.7,246.9 418.7,79.9 	"/>
</g>
</svg>
