<?xml version="1.0" encoding="utf-8"?>
<!-- Generator: Adobe Illustrator 19.1.0, SVG Export Plug-In . SVG Version: 6.00 Build 0)  -->
<svg version="1.0" id="Layer_1" xmlns="http://www.w3.org/2000/svg" xmlns:xlink="http://www.w3.org/1999/xlink" x="0px" y="0px"
	 width="191.9px" height="20.4px" viewBox="0 0 191.9 20.4" style="enable-background:new 0 0 191.9 20.4;" xml:space="preserve">
<g>
	<path d="M8.2,15.4c-0.4,0.2-0.9,0.4-1.4,0.5S5.7,16.1,5,16.1c-1.1,0-1.9-0.3-2.4-0.8c-0.5-0.5-0.8-1.3-0.8-2.2V6.9H0V5.7h1.9V2.6
		h3.3v3.1h2.9v1.1H5.2v5.6c0,0.8,0.1,1.4,0.3,1.7c0.2,0.3,0.6,0.5,1.2,0.5c0.2,0,0.4,0,0.8,0s0.6-0.1,0.7-0.1V15.4z"/>
	<path d="M22.3,15.9h-6.2v-0.7c0.1,0,0.3,0,0.5-0.1S16.9,15,17,15c0.1-0.1,0.2-0.2,0.3-0.3c0.1-0.1,0.1-0.4,0.1-0.6V9.2
		c0-0.7-0.1-1.2-0.4-1.6c-0.3-0.3-0.6-0.5-1.1-0.5c-0.3,0-0.5,0-0.8,0.1c-0.2,0.1-0.5,0.2-0.7,0.4c-0.2,0.1-0.4,0.3-0.5,0.4
		c-0.1,0.1-0.2,0.3-0.3,0.4v5.5c0,0.3,0,0.5,0.1,0.6s0.2,0.3,0.3,0.4c0.1,0.1,0.2,0.1,0.4,0.2s0.3,0.1,0.5,0.1v0.7H8.7v-0.7
		c0.2,0,0.4,0,0.5-0.1c0.2,0,0.3-0.1,0.4-0.1c0.2-0.1,0.4-0.2,0.4-0.4s0.1-0.4,0.1-0.6V2.6c0-0.2-0.1-0.5-0.2-0.7S9.9,1.4,9.7,1.3
		C9.5,1.2,9.3,1.2,9.1,1.1S8.6,1,8.4,1V0.3L13.5,0l0.2,0.2v7.1h0c0.3-0.2,0.5-0.4,0.7-0.6c0.2-0.2,0.5-0.4,0.8-0.6
		c0.3-0.2,0.6-0.3,1-0.4c0.4-0.1,0.8-0.2,1.3-0.2c1.1,0,1.9,0.3,2.5,1s0.8,1.5,0.8,2.5v5c0,0.3,0,0.5,0.1,0.6s0.2,0.3,0.4,0.4
		c0.1,0.1,0.3,0.1,0.4,0.1s0.3,0.1,0.6,0.1V15.9z"/>
	<path d="M34.2,13.4c-0.2,0.4-0.5,0.8-0.9,1.1c-0.3,0.3-0.7,0.6-1.2,0.9c-0.5,0.3-0.9,0.5-1.4,0.6s-1,0.2-1.6,0.2
		c-1,0-1.9-0.1-2.6-0.4c-0.7-0.3-1.3-0.7-1.8-1.2s-0.8-1.1-1.1-1.7c-0.2-0.7-0.4-1.4-0.4-2.1c0-0.7,0.1-1.4,0.4-2
		C24,8.1,24.4,7.5,24.8,7c0.5-0.5,1.1-0.9,1.8-1.2c0.7-0.3,1.5-0.5,2.4-0.5c1,0,1.7,0.1,2.4,0.3s1.1,0.6,1.5,1
		c0.4,0.4,0.7,0.8,0.9,1.4S34,9.2,34,9.8v0.7H27c0,1.4,0.3,2.5,0.8,3.2s1.4,1.1,2.6,1.1c0.6,0,1.2-0.2,1.7-0.5s1-0.8,1.3-1.3
		L34.2,13.4z M30.3,9.5c0-0.4,0-0.8-0.1-1.3c0-0.4-0.1-0.8-0.2-1.1c-0.1-0.3-0.3-0.6-0.5-0.7c-0.2-0.2-0.5-0.2-0.8-0.2
		c-0.5,0-0.9,0.3-1.3,0.8S27.1,8.4,27,9.6L30.3,9.5z"/>
	<path d="M58.2,6.4c-0.3,0-0.6,0.2-0.9,0.3s-0.5,0.5-0.7,0.9c-0.5,1.2-0.9,2.1-1.1,2.8s-0.7,1.8-1.2,3.1c-0.1,0.3-0.2,0.7-0.4,1.2
		c-0.2,0.5-0.3,0.9-0.4,1.2h-2L49,9l-2.4,7h-2c-0.7-1.9-1.2-3.3-1.6-4.3S42,9.2,41.4,7.5C41.2,7.2,41,7,40.7,6.8
		c-0.3-0.2-0.6-0.3-0.9-0.3V5.7h6.3v0.7c-0.2,0-0.5,0.1-0.8,0.2C45,6.7,44.8,6.8,44.8,7c0,0.1,0,0.1,0,0.2c0,0.1,0,0.1,0.1,0.3
		c0.2,0.5,0.4,1.2,0.8,2.1c0.3,0.8,0.7,1.8,1.1,3l2.3-6.8h2l2.6,7c0.4-1.1,0.7-1.9,0.9-2.5c0.2-0.6,0.5-1.4,0.8-2.3
		c0-0.1,0.1-0.3,0.1-0.4s0-0.2,0-0.2c0-0.1-0.1-0.2-0.2-0.3c-0.1-0.1-0.3-0.2-0.4-0.2c-0.2-0.1-0.3-0.1-0.5-0.1
		c-0.2,0-0.3-0.1-0.4-0.1V5.7h4.2V6.4z"/>
	<path d="M69.7,13.4c-0.2,0.4-0.5,0.8-0.9,1.1c-0.3,0.3-0.7,0.6-1.2,0.9c-0.5,0.3-0.9,0.5-1.4,0.6s-1,0.2-1.6,0.2
		c-1,0-1.9-0.1-2.6-0.4c-0.7-0.3-1.3-0.7-1.8-1.2s-0.8-1.1-1.1-1.7c-0.2-0.7-0.4-1.4-0.4-2.1c0-0.7,0.1-1.4,0.4-2
		c0.3-0.6,0.6-1.2,1.1-1.7c0.5-0.5,1.1-0.9,1.8-1.2c0.7-0.3,1.5-0.5,2.4-0.5c1,0,1.7,0.1,2.4,0.3s1.1,0.6,1.5,1
		c0.4,0.4,0.7,0.8,0.9,1.4s0.3,1.1,0.3,1.7v0.7h-6.9c0,1.4,0.3,2.5,0.8,3.2s1.4,1.1,2.6,1.1c0.6,0,1.2-0.2,1.7-0.5s1-0.8,1.3-1.3
		L69.7,13.4z M65.8,9.5c0-0.4,0-0.8-0.1-1.3c0-0.4-0.1-0.8-0.2-1.1c-0.1-0.3-0.3-0.6-0.5-0.7c-0.2-0.2-0.5-0.2-0.8-0.2
		c-0.5,0-0.9,0.3-1.3,0.8s-0.5,1.4-0.5,2.5L65.8,9.5z"/>
	<path d="M81.7,13.4c-0.2,0.4-0.5,0.8-0.9,1.1c-0.3,0.3-0.7,0.6-1.2,0.9c-0.5,0.3-0.9,0.5-1.4,0.6s-1,0.2-1.6,0.2
		c-1,0-1.9-0.1-2.6-0.4c-0.7-0.3-1.3-0.7-1.8-1.2s-0.8-1.1-1.1-1.7c-0.2-0.7-0.4-1.4-0.4-2.1c0-0.7,0.1-1.4,0.4-2
		c0.3-0.6,0.6-1.2,1.1-1.7c0.5-0.5,1.1-0.9,1.8-1.2c0.7-0.3,1.5-0.5,2.4-0.5c1,0,1.7,0.1,2.4,0.3s1.1,0.6,1.5,1
		c0.4,0.4,0.7,0.8,0.9,1.4s0.3,1.1,0.3,1.7v0.7h-6.9c0,1.4,0.3,2.5,0.8,3.2s1.4,1.1,2.6,1.1c0.6,0,1.2-0.2,1.7-0.5s1-0.8,1.3-1.3
		L81.7,13.4z M77.8,9.5c0-0.4,0-0.8-0.1-1.3c0-0.4-0.1-0.8-0.2-1.1c-0.1-0.3-0.3-0.6-0.5-0.7c-0.2-0.2-0.5-0.2-0.8-0.2
		c-0.5,0-0.9,0.3-1.3,0.8s-0.5,1.4-0.5,2.5L77.8,9.5z"/>
	<path d="M95.9,15.9H91c-0.6-1-1.1-1.9-1.6-2.7c-0.5-0.7-1-1.4-1.4-2l-0.6,0.5v2.2c0,0.2,0,0.4,0.1,0.6c0.1,0.2,0.2,0.3,0.4,0.3
		C88,15,88.2,15,88.3,15s0.3,0.1,0.5,0.1v0.7h-6.4v-0.7c0.2,0,0.3,0,0.5-0.1c0.2,0,0.3-0.1,0.5-0.1c0.2-0.1,0.4-0.2,0.4-0.3
		S84,14.3,84,14V2.6c0-0.2,0-0.5-0.1-0.7c-0.1-0.2-0.2-0.4-0.4-0.5c-0.1-0.1-0.3-0.2-0.6-0.2S82.3,1,82.1,1V0.3L87.2,0l0.2,0.2v10.6
		c0.5-0.5,1.1-1,1.7-1.6c0.6-0.6,1.1-1.1,1.5-1.5C90.8,7.5,91,7.3,91,7.2S91,7,91,7c0-0.1-0.1-0.2-0.3-0.3c-0.2-0.1-0.5-0.2-1-0.2
		V5.7h5.2v0.7c-0.7,0.2-1.2,0.4-1.6,0.5c-0.4,0.2-0.7,0.4-1.2,0.7c-0.3,0.2-0.6,0.4-0.8,0.6c-0.3,0.2-0.6,0.5-0.9,0.8
		c0.7,1,1.3,1.9,1.9,2.7s1.2,1.7,1.8,2.6c0.2,0.3,0.5,0.5,0.8,0.6s0.6,0.2,0.9,0.2V15.9z"/>
	<path d="M102.2,15.9h-6.5v-0.7c0.2,0,0.4,0,0.5-0.1c0.2,0,0.3-0.1,0.4-0.1c0.2-0.1,0.4-0.2,0.4-0.4s0.1-0.4,0.1-0.6V2.6
		c0-0.3-0.1-0.5-0.2-0.7c-0.1-0.2-0.2-0.4-0.4-0.5c-0.1-0.1-0.3-0.2-0.6-0.3C95.8,1.1,95.6,1,95.4,1V0.3l5.2-0.3l0.2,0.2v13.7
		c0,0.3,0,0.5,0.1,0.6s0.2,0.3,0.4,0.4c0.1,0.1,0.3,0.1,0.4,0.2c0.2,0,0.3,0.1,0.5,0.1V15.9z"/>
	<path d="M114.8,6.4c-0.3,0-0.6,0.2-0.9,0.3s-0.5,0.5-0.7,0.9c-0.6,1.2-1.2,2.6-1.8,4s-1.3,2.9-2.1,4.6c-0.4,0.9-0.8,1.6-1.2,2.2
		s-0.8,1-1.1,1.3c-0.3,0.3-0.7,0.5-1,0.6s-0.6,0.2-1,0.2c-0.6,0-1.2-0.2-1.6-0.5c-0.4-0.4-0.6-0.8-0.6-1.2c0-0.2,0-0.4,0.1-0.5
		s0.1-0.3,0.3-0.5c0.1-0.2,0.3-0.3,0.5-0.4c0.2-0.1,0.5-0.2,0.8-0.2c0.4,0,0.7,0.1,1.1,0.4c0.3,0.3,0.7,0.6,1.1,1.1
		c0.2-0.2,0.5-0.6,0.8-1c0.3-0.4,0.6-0.9,0.7-1.4c-0.8-1.7-1.5-3.2-2.2-4.4c-0.6-1.3-1.3-2.7-2.1-4.2c-0.2-0.3-0.4-0.6-0.7-0.8
		s-0.6-0.3-0.9-0.3V5.7h6.3v0.7c-0.2,0-0.5,0.1-0.8,0.2c-0.3,0.1-0.5,0.2-0.5,0.4c0,0.1,0,0.1,0,0.2s0.1,0.2,0.1,0.3
		c0.2,0.5,0.6,1.1,1,2s0.9,1.8,1.5,3c0.4-1,0.8-1.8,1.1-2.5s0.6-1.4,0.9-2.1c0.1-0.2,0.1-0.3,0.1-0.4s0-0.2,0-0.2
		c0-0.1-0.1-0.2-0.2-0.3c-0.1-0.1-0.3-0.2-0.4-0.2c-0.2-0.1-0.3-0.1-0.5-0.2c-0.2,0-0.3-0.1-0.4-0.1V5.7h4.2V6.4z"/>
	<path d="M130.8,6.9c0.5,0.5,0.9,1,1.2,1.7s0.4,1.4,0.4,2.1c0,0.8-0.1,1.5-0.4,2.1s-0.6,1.2-1.2,1.7c-0.5,0.5-1.2,0.9-1.9,1.2
		c-0.7,0.3-1.6,0.4-2.6,0.4c-0.8,0-1.6-0.1-2.3-0.4s-1.3-0.6-1.9-1.1c-0.5-0.5-0.9-1-1.2-1.7s-0.5-1.4-0.5-2.3
		c0-0.8,0.1-1.5,0.4-2.2c0.3-0.6,0.7-1.2,1.2-1.7c0.5-0.5,1.1-0.8,1.9-1.1c0.7-0.3,1.6-0.4,2.5-0.4c1,0,1.8,0.1,2.5,0.4
		C129.7,6.1,130.3,6.4,130.8,6.9z M128.2,14c0.2-0.4,0.3-0.8,0.3-1.4c0.1-0.5,0.1-1.2,0.1-1.9c0-0.5,0-1-0.1-1.6s-0.2-1.1-0.3-1.5
		c-0.2-0.4-0.4-0.8-0.7-1c-0.3-0.2-0.7-0.4-1.1-0.4c-0.5,0-0.9,0.1-1.2,0.4s-0.5,0.6-0.7,1c-0.1,0.4-0.2,0.8-0.3,1.4
		s-0.1,1.1-0.1,1.6c0,0.7,0,1.4,0.1,1.9s0.2,1,0.3,1.5c0.2,0.4,0.4,0.8,0.7,1s0.7,0.4,1.1,0.4c0.4,0,0.8-0.1,1.1-0.3
		S128,14.5,128.2,14z"/>
	<path d="M147.1,15.7l-4.9,0.3l-0.2-0.1v-1.3h-0.1c-0.2,0.2-0.5,0.4-0.7,0.6c-0.2,0.2-0.5,0.4-0.8,0.5c-0.3,0.2-0.7,0.3-1,0.4
		s-0.8,0.1-1.4,0.1c-1,0-1.8-0.3-2.4-0.9c-0.5-0.6-0.8-1.5-0.8-2.6V8c0-0.3-0.1-0.5-0.2-0.7s-0.2-0.3-0.4-0.4
		c-0.1-0.1-0.3-0.2-0.5-0.2c-0.2,0-0.4-0.1-0.6-0.1V5.8l5-0.3l0.1,0.2v6.8c0,0.7,0.1,1.2,0.4,1.6c0.3,0.3,0.6,0.5,1.1,0.5
		c0.5,0,0.9-0.1,1.3-0.4c0.4-0.3,0.7-0.5,0.8-0.8V7.9c0-0.2,0-0.4-0.1-0.6s-0.2-0.3-0.4-0.5c-0.1-0.1-0.3-0.1-0.5-0.2
		c-0.2,0-0.5,0-0.7-0.1V5.8l5-0.3l0.2,0.2v7.9c0,0.2,0,0.4,0.1,0.6s0.2,0.3,0.4,0.4c0.1,0.1,0.3,0.1,0.5,0.2s0.4,0,0.6,0.1V15.7z"/>
	<path d="M155.5,15.4c-0.4,0.2-0.9,0.4-1.4,0.5s-1.1,0.2-1.8,0.2c-1.1,0-1.9-0.3-2.4-0.8c-0.5-0.5-0.8-1.3-0.8-2.2V6.9h-1.8V5.7h1.9
		V2.6h3.3v3.1h2.9v1.1h-2.9v5.6c0,0.8,0.1,1.4,0.3,1.7c0.2,0.3,0.6,0.5,1.2,0.5c0.2,0,0.4,0,0.8,0s0.6-0.1,0.7-0.1V15.4z"/>
	<path d="M168.7,10.9c0,1.4-0.5,2.7-1.4,3.7s-2.2,1.5-3.7,1.5c-0.7,0-1.2-0.1-1.6-0.2s-0.7-0.3-1-0.5h-0.1v2.9
		c0,0.2,0.1,0.4,0.2,0.6c0.1,0.2,0.3,0.3,0.4,0.4c0.2,0.1,0.4,0.1,0.8,0.2c0.3,0.1,0.6,0.1,0.8,0.1v0.8h-7.4v-0.8
		c0.2,0,0.4,0,0.6-0.1s0.5-0.1,0.6-0.1c0.2-0.1,0.4-0.2,0.4-0.4s0.1-0.4,0.1-0.6V8c0-0.2-0.1-0.4-0.2-0.6s-0.2-0.3-0.4-0.5
		c-0.1-0.1-0.3-0.2-0.5-0.2s-0.4-0.1-0.7-0.1V5.8l5-0.3l0.2,0.1v1.1l0.1,0c0.5-0.5,1-0.8,1.5-1.1c0.5-0.3,1.1-0.4,1.6-0.4
		c1.4,0,2.5,0.5,3.3,1.5S168.7,9.2,168.7,10.9z M165,10.9c0-0.5,0-1-0.1-1.5c-0.1-0.5-0.2-0.9-0.4-1.3c-0.2-0.4-0.4-0.7-0.7-0.9
		c-0.3-0.2-0.7-0.3-1.1-0.3c-0.4,0-0.8,0.1-1.1,0.2c-0.3,0.2-0.5,0.4-0.7,0.6v5.8c0,0.1,0.1,0.3,0.2,0.5c0.1,0.2,0.2,0.4,0.3,0.5
		c0.2,0.2,0.4,0.3,0.6,0.4s0.5,0.1,0.7,0.1c0.7,0,1.2-0.4,1.6-1.1C164.8,13.4,165,12.3,165,10.9z"/>
	<path d="M183.4,15.7l-4.9,0.3l-0.2-0.1v-1.3h-0.1c-0.2,0.2-0.5,0.4-0.7,0.6c-0.2,0.2-0.5,0.4-0.8,0.5c-0.3,0.2-0.7,0.3-1,0.4
		s-0.8,0.1-1.4,0.1c-1,0-1.8-0.3-2.4-0.9c-0.5-0.6-0.8-1.5-0.8-2.6V8c0-0.3-0.1-0.5-0.2-0.7s-0.2-0.3-0.4-0.4
		c-0.1-0.1-0.3-0.2-0.5-0.2c-0.2,0-0.4-0.1-0.6-0.1V5.8l5-0.3l0.1,0.2v6.8c0,0.7,0.1,1.2,0.4,1.6c0.3,0.3,0.6,0.5,1.1,0.5
		c0.5,0,0.9-0.1,1.3-0.4c0.4-0.3,0.7-0.5,0.8-0.8V7.9c0-0.2,0-0.4-0.1-0.6s-0.2-0.3-0.4-0.5c-0.1-0.1-0.3-0.1-0.5-0.2
		c-0.2,0-0.5,0-0.7-0.1V5.8l5-0.3l0.2,0.2v7.9c0,0.2,0,0.4,0.1,0.6s0.2,0.3,0.4,0.4c0.1,0.1,0.3,0.1,0.5,0.2s0.4,0,0.6,0.1V15.7z"/>
	<path d="M191.9,15.4c-0.4,0.2-0.9,0.4-1.4,0.5s-1.1,0.2-1.8,0.2c-1.1,0-1.9-0.3-2.4-0.8c-0.5-0.5-0.8-1.3-0.8-2.2V6.9h-1.8V5.7h1.9
		V2.6h3.3v3.1h2.9v1.1h-2.9v5.6c0,0.8,0.1,1.4,0.3,1.7c0.2,0.3,0.6,0.5,1.2,0.5c0.2,0,0.4,0,0.8,0s0.6-0.1,0.7-0.1V15.4z"/>
</g>
</svg>
