<?xml version="1.0" encoding="utf-8"?>
<!-- Generator: Adobe Illustrator 19.1.0, SVG Export Plug-In . SVG Version: 6.00 Build 0)  -->
<svg version="1.1" id="Layer_1" xmlns="http://www.w3.org/2000/svg" xmlns:xlink="http://www.w3.org/1999/xlink" x="0px" y="0px"
	 width="1179.9px" height="167.8px" viewBox="281 79.2 1179.9 167.8" style="enable-background:new 281 79.2 1179.9 167.8;"
	 xml:space="preserve">
<g>
	<polygon points="280.9,142.4 299.2,142.4 299.2,212.1 329.5,212.1 329.5,142.4 329.5,129.4 329.5,116.1 280.9,116.1 	"/>
	<polygon points="1179.2,116.1 1160.9,116.1 1160.9,142.4 1179.2,142.4 1179.2,212.1 1209.7,212.1 1209.7,142.4 1228,142.4 
		1228,116.1 1209.7,116.1 	"/>
	<polygon points="424.9,116.1 418.8,116.1 418.8,212.1 424.9,212.1 449.1,212.1 475.4,212.1 475.4,185.8 449.1,185.8 449.1,174.8 
		465.5,174.8 465.5,153.4 449.1,153.4 449.1,142.4 475.4,142.4 475.4,116.1 449.1,116.1 	"/>
	<polygon points="627.8,116.1 627.3,116.1 621.7,116.1 596.1,116.1 583.1,164.9 582.4,162.3 582.4,162.3 572.5,116.1 571.6,116.1 
		551.4,116.1 541,165.3 540.8,165.3 535.4,142.4 539.7,142.4 545.3,116.1 529.1,116.1 497.6,116.1 497.2,116.1 498.5,118.7 
		529.4,212.1 531.3,212.1 551.8,212.1 553.5,212.1 561.3,170.3 561.5,171.1 570.6,212.1 591.3,212.1 594.5,212.1 621.7,132.1 
		621.7,212.1 627.8,212.1 652,212.1 678.3,212.1 678.3,185.8 652,185.8 652,174.8 668.4,174.8 668.4,153.4 652,153.4 652,142.4 
		678.3,142.4 678.3,116.1 652,116.1 	"/>
	<polygon points="691.2,116.1 685.2,116.1 685.2,212.1 691.2,212.1 715.6,212.1 741.7,212.1 741.7,185.8 715.6,185.8 715.6,174.8 
		731.8,174.8 731.8,153.4 715.6,153.4 715.6,142.4 741.7,142.4 741.7,116.1 715.6,116.1 	"/>
	<polygon points="868,116.1 837.6,116.1 837.6,212.1 843.8,212.1 868,212.1 894.3,212.1 894.3,185.8 868,185.8 	"/>
	<polygon points="381.5,152.8 367,152.8 367,142.4 374.1,142.4 374.1,116.1 367,116.1 336.4,116.1 336.4,142.4 336.4,212.1 
		367,212.1 367,175.6 381.5,175.6 381.5,212.1 411.9,212.1 411.9,116.1 381.5,116.1 	"/>
	<polygon points="797.6,116.1 779.1,147.2 779.1,116.1 748.6,116.1 748.6,212.1 779.1,212.1 779.1,186.7 797.2,212.1 831.5,212.1 
		799.8,161.4 835.2,116.1 	"/>
	<polygon points="917,139.6 906.2,116.1 873.4,116.1 901.3,165.9 901.3,212.1 931.7,212.1 931.7,167.7 931.7,167.7 960.8,116.1 
		927.8,116.1 	"/>
	<path d="M1124.2,124.9v47.5c0,7.5-1.5,11.2-8.2,11.2c-6.5,0-8.4-3.9-8.4-11.2v-43v-4.5v-8.8h-29.8v8.8v6.9v42.7
		c0,21.1,17.3,37.6,37.6,37.6c20.5,0,38.6-16.8,38.6-37.6v-49.6v-8.8h-29.8V124.9L1124.2,124.9z"/>
	<polygon points="1442.6,116.1 1412.2,116.1 1394,116.1 1394,142.4 1412.2,142.4 1412.2,212.1 1442.6,212.1 1442.6,142.4 
		1460.9,142.4 1460.9,116.1 	"/>
	<path d="M1357.3,124.9v47.5c0,7.5-1.5,11.2-8.2,11.2c-6.5,0-8.4-3.9-8.4-11.2v-43v-4.5v-8.8h-29.8v8.8v6.9v42.7
		c0,21.1,17.3,37.6,37.6,37.6c20.5,0,38.6-16.8,38.6-37.6v-49.6v-8.8h-29.8V124.9z"/>
	<path d="M1265.2,116.1L1265.2,116.1L1265.2,116.1h-30.4v96h30.4v-32.8c13.2,0.4,41,0.9,41-30.7
		C1306.2,136.2,1301.8,116.1,1265.2,116.1z M1265.2,159v-17.9c4.8-0.9,12.3,1.9,12.3,8.9C1277.3,160.3,1265.2,159,1265.2,159z"/>
	<path d="M1025.4,114.1c-27,0-47.5,22.5-47.5,49s20.5,49,47.5,49c27,0,47.5-22.5,47.5-49C1073.1,136.6,1052.5,114.1,1025.4,114.1z
		 M1025.4,182.3c-9.7,0-17.7-7.8-17.7-19.2s8-19.2,17.7-19.2c9.7,0,17.7,7.8,17.7,19.2C1043.3,174.4,1035.3,182.3,1025.4,182.3z"/>
</g>
</svg>
