<?xml version="1.0" encoding="utf-8"?>
<!-- Generator: Adobe Illustrator 19.1.0, SVG Export Plug-In . SVG Version: 6.00 Build 0)  -->
<svg version="1.1" id="Layer_1" xmlns="http://www.w3.org/2000/svg" xmlns:xlink="http://www.w3.org/1999/xlink" x="0px" y="0px"
	 width="108.7px" height="127.7px" viewBox="-380 461.3 108.7 127.7" style="enable-background:new -380 461.3 108.7 127.7;"
	 xml:space="preserve">
<path d="M-330.2,557.1l1.5-1l17.7-12.2l3.3-2.3l5.9-4.1v-8.1v-1.1v-8.2v-1.5v-0.2v-0.6v-35.3h22l8.5-21.2h-4.2H-349h-1.8h-12.8
	c-8.3-0.1-15.3,5-16.4,11.4l14.1,20.5c-3-4.5-2.8-10.7,6.2-10.7h10.3h1.7c-9,7.9-20.2,21.2-20.2,38.7c0,23.5,13.6,62.1,62.6,67.8
	l12.7-8.1l18.7-11.9c0.1,0-7.5,0-18.7,0C-310.5,569-322.3,564-330.2,557.1z M-345.4,521.2c0-28.4,8.9-37.8,8.9-37.8c0.9-1,1-1,1-1
	h12.3v2.5v32.9v0.6v0.2v1.5v6.8v15.6c0,0.2,0,0.4,0,0.6c-0.1,1.8-0.8,3.8-1.9,5.8c-1.6,2.5-4,4.9-6.5,6.9
	C-344.4,543.4-345.4,526.2-345.4,521.2z"/>
</svg>
