<?xml version="1.0" encoding="utf-8"?>
<!-- Generator: Adobe Illustrator 19.1.0, SVG Export Plug-In . SVG Version: 6.00 Build 0)  -->
<svg version="1.0" id="Layer_1" xmlns="http://www.w3.org/2000/svg" xmlns:xlink="http://www.w3.org/1999/xlink" x="0px" y="0px"
	 width="1047.9px" height="1047.9px" viewBox="0 0 1047.9 1047.9" style="enable-background:new 0 0 1047.9 1047.9;"
	 xml:space="preserve">
<style type="text/css">
	.st0{fill:#00ACED;}
	.st1{fill:#FFFFFF;}
</style>
<circle class="twitter-circle" cx="523.9" cy="523.9" r="523.9"/>
<g>
	<g>
		<path class="twitter-icon-svg" d="M776.3,378.7c-17.8,7.9-37,13.3-57.1,15.7c20.5-12.3,36.3-31.8,43.7-55c-19.3,11.4-40.5,19.7-63.2,24.1
			c-18.1-19.4-43.9-31.4-72.6-31.4c-54.9,0-99.4,44.5-99.4,99.4c0,7.8,0.9,15.4,2.6,22.7c-82.6-4.2-155.9-43.7-204.9-103.9
			c-8.6,14.7-13.4,31.7-13.4,50c0,34.5,17.6,64.9,44.2,82.7c-16.3-0.5-31.6-5-45-12.5v1.2c0,48.2,34.3,88.4,79.7,97.5
			c-8.3,2.2-17.1,3.5-26.2,3.5c-6.4,0-12.6-0.6-18.7-1.8c12.7,39.5,49.4,68.3,92.9,69.1c-34,26.7-76.9,42.5-123.5,42.5
			c-8,0-15.9-0.5-23.7-1.4c44,28.3,96.3,44.7,152.4,44.7c182.9,0,282.9-151.5,282.9-282.9l-0.3-12.9
			C746.1,416.1,763,398.6,776.3,378.7z"/>
	</g>
</g>
</svg>
